<?xml version="1.0" encoding="UTF-8" standalone="no"?>
<!DOCTYPE svg PUBLIC "-//W3C//DTD SVG 1.1//EN"
 "http://www.w3.org/Graphics/SVG/1.1/DTD/svg11.dtd">
<!-- Generated by graphviz version 2.26.3 (20100126.1600)
 -->
<!-- Title: dependency&#45;graph Pages: 1 -->
<svg width="1930pt" height="646pt"
 viewBox="0.00 0.00 1930.00 646.00" xmlns="http://www.w3.org/2000/svg" xmlns:xlink="http://www.w3.org/1999/xlink">
<g id="graph1" class="graph" transform="scale(1 1) rotate(0) translate(4 642)">
<title>dependency&#45;graph</title>
<polygon fill="white" stroke="white" points="-4,5 -4,-642 1927,-642 1927,5 -4,5"/>
<!-- gov.nasa.jpl.imce:gov&#45;nasa&#45;jpl&#45;imce&#45;oml&#45;tables_sjs0.6_2.11:0.53.0 -->
<g id="node1" class="node"><title>gov.nasa.jpl.imce:gov&#45;nasa&#45;jpl&#45;imce&#45;oml&#45;tables_sjs0.6_2.11:0.53.0</title>
<ellipse fill="none" stroke="black" cx="212" cy="-348" rx="212.132" ry="41.7193"/>
<text text-anchor="start" x="153" y="-363.233" font-family="Times Roman,serif" font-size="14.00">gov.nasa.jpl.imce</text>
<text text-anchor="start" x="70.5" y="-346.433" font-family="Times Roman,serif" font-size="14.00">gov&#45;nasa&#45;jpl&#45;imce&#45;oml&#45;tables_sjs0.6_2.11</text>
<text text-anchor="start" x="189" y="-329.633" font-family="Times Roman,serif" font-size="14.00">0.53.0</text>
</g>
<!-- com.lihaoyi:upickle_sjs0.6_2.11:0.4.3 -->
<g id="node2" class="node"><title>com.lihaoyi:upickle_sjs0.6_2.11:0.4.3</title>
<ellipse fill="none" stroke="black" cx="617" cy="-493" rx="106.98" ry="41.7193"/>
<text text-anchor="start" x="578" y="-508.233" font-family="Times Roman,serif" font-size="14.00">com.lihaoyi</text>
<text text-anchor="start" x="549.5" y="-491.433" font-family="Times Roman,serif" font-size="14.00">upickle_sjs0.6_2.11</text>
<text text-anchor="start" x="598.5" y="-474.633" font-family="Times Roman,serif" font-size="14.00">0.4.3</text>
</g>
<!-- gov.nasa.jpl.imce:gov&#45;nasa&#45;jpl&#45;imce&#45;oml&#45;tables_sjs0.6_2.11:0.53.0&#45;&gt;com.lihaoyi:upickle_sjs0.6_2.11:0.4.3 -->
<g id="edge2" class="edge"><title>gov.nasa.jpl.imce:gov&#45;nasa&#45;jpl&#45;imce&#45;oml&#45;tables_sjs0.6_2.11:0.53.0&#45;&gt;com.lihaoyi:upickle_sjs0.6_2.11:0.4.3</title>
<path fill="none" stroke="black" d="M312.893,-384.122C379.3,-407.898 465.384,-438.718 529.006,-461.496"/>
<polygon fill="black" stroke="black" points="528.026,-464.863 538.62,-464.938 530.385,-458.272 528.026,-464.863"/>
</g>
<!-- org.apache.commons:commons&#45;compress:1.4.1 -->
<g id="node5" class="node"><title>org.apache.commons:commons&#45;compress:1.4.1</title>
<ellipse fill="none" stroke="black" cx="617" cy="-279" rx="114.051" ry="41.7193"/>
<text text-anchor="start" x="544.5" y="-294.233" font-family="Times Roman,serif" font-size="14.00">org.apache.commons</text>
<text text-anchor="start" x="550" y="-277.433" font-family="Times Roman,serif" font-size="14.00">commons&#45;compress</text>
<text text-anchor="start" x="598.5" y="-260.633" font-family="Times Roman,serif" font-size="14.00">1.4.1</text>
</g>
<!-- gov.nasa.jpl.imce:gov&#45;nasa&#45;jpl&#45;imce&#45;oml&#45;tables_sjs0.6_2.11:0.53.0&#45;&gt;org.apache.commons:commons&#45;compress:1.4.1 -->
<g id="edge10" class="edge"><title>gov.nasa.jpl.imce:gov&#45;nasa&#45;jpl&#45;imce&#45;oml&#45;tables_sjs0.6_2.11:0.53.0&#45;&gt;org.apache.commons:commons&#45;compress:1.4.1</title>
<path fill="none" stroke="black" d="M371.195,-320.878C415.391,-313.348 462.474,-305.327 503.481,-298.34"/>
<polygon fill="black" stroke="black" points="504.225,-301.764 513.495,-296.634 503.049,-294.863 504.225,-301.764"/>
</g>
<!-- org.scala&#45;js:scalajs&#45;library_2.11:0.6.6 -->
<g id="node8" class="node"><title>org.scala&#45;js:scalajs&#45;library_2.11:0.6.6</title>
<ellipse fill="none" stroke="black" cx="1494" cy="-424" rx="106.066" ry="41.7193"/>
<text text-anchor="start" x="1455.5" y="-439.233" font-family="Times Roman,serif" font-size="14.00">org.scala&#45;js</text>
<text text-anchor="start" x="1427.5" y="-422.433" font-family="Times Roman,serif" font-size="14.00">scalajs&#45;library_2.11</text>
<text text-anchor="start" x="1475.5" y="-405.633" font-family="Times Roman,serif" font-size="14.00">0.6.6</text>
</g>
<!-- gov.nasa.jpl.imce:gov&#45;nasa&#45;jpl&#45;imce&#45;oml&#45;tables_sjs0.6_2.11:0.53.0&#45;&gt;org.scala&#45;js:scalajs&#45;library_2.11:0.6.6 -->
<g id="edge14" class="edge"><title>gov.nasa.jpl.imce:gov&#45;nasa&#45;jpl&#45;imce&#45;oml&#45;tables_sjs0.6_2.11:0.53.0&#45;&gt;org.scala&#45;js:scalajs&#45;library_2.11:0.6.6</title>
<path fill="none" stroke="black" d="M424.032,-348C486.214,-348 554.334,-348 617,-348 617,-348 617,-348 1222,-348 1288.61,-348 1361.11,-369.4 1414.5,-389.489"/>
<polygon fill="black" stroke="black" points="1413.32,-392.782 1423.91,-393.088 1415.82,-386.245 1413.32,-392.782"/>
</g>
<!-- org.scala&#45;js:scalajs&#45;library_2.11:0.6.8 -->
<g id="node9" class="node"><title>org.scala&#45;js:scalajs&#45;library_2.11:0.6.8</title>
<ellipse fill="none" stroke="black" cx="1494" cy="-562" rx="106.066" ry="41.7193"/>
<text text-anchor="start" x="1455.5" y="-577.233" font-family="Times Roman,serif" font-size="14.00">org.scala&#45;js</text>
<text text-anchor="start" x="1427.5" y="-560.433" font-family="Times Roman,serif" font-size="14.00">scalajs&#45;library_2.11</text>
<text text-anchor="start" x="1475.5" y="-543.633" font-family="Times Roman,serif" font-size="14.00">0.6.8</text>
</g>
<!-- gov.nasa.jpl.imce:gov&#45;nasa&#45;jpl&#45;imce&#45;oml&#45;tables_sjs0.6_2.11:0.53.0&#45;&gt;org.scala&#45;js:scalajs&#45;library_2.11:0.6.8 -->
<g id="edge22" class="edge"><title>gov.nasa.jpl.imce:gov&#45;nasa&#45;jpl&#45;imce&#45;oml&#45;tables_sjs0.6_2.11:0.53.0&#45;&gt;org.scala&#45;js:scalajs&#45;library_2.11:0.6.8</title>
<path fill="none" stroke="black" d="M240.61,-388.629C300.519,-468.441 447.717,-638 617,-638 617,-638 617,-638 1222,-638 1288.61,-638 1361.11,-616.6 1414.5,-596.511"/>
<polygon fill="black" stroke="black" points="1415.82,-599.755 1423.91,-592.912 1413.32,-593.218 1415.82,-599.755"/>
</g>
<!-- com.sksamuel.scapegoat:scalac&#45;scapegoat&#45;plugin_2.11:1.0.0 -->
<g id="node11" class="node"><title>com.sksamuel.scapegoat:scalac&#45;scapegoat&#45;plugin_2.11:1.0.0</title>
<ellipse fill="none" stroke="black" cx="617" cy="-160" rx="154.856" ry="41.7193"/>
<text text-anchor="start" x="532" y="-175.233" font-family="Times Roman,serif" font-size="14.00">com.sksamuel.scapegoat</text>
<text text-anchor="start" x="516" y="-158.433" font-family="Times Roman,serif" font-size="14.00">scalac&#45;scapegoat&#45;plugin_2.11</text>
<text text-anchor="start" x="598.5" y="-141.633" font-family="Times Roman,serif" font-size="14.00">1.0.0</text>
</g>
<!-- gov.nasa.jpl.imce:gov&#45;nasa&#45;jpl&#45;imce&#45;oml&#45;tables_sjs0.6_2.11:0.53.0&#45;&gt;com.sksamuel.scapegoat:scalac&#45;scapegoat&#45;plugin_2.11:1.0.0 -->
<g id="edge34" class="edge"><title>gov.nasa.jpl.imce:gov&#45;nasa&#45;jpl&#45;imce&#45;oml&#45;tables_sjs0.6_2.11:0.53.0&#45;&gt;com.sksamuel.scapegoat:scalac&#45;scapegoat&#45;plugin_2.11:1.0.0</title>
<path fill="none" stroke="black" d="M290.856,-309.834C339.945,-286.232 404.475,-255.49 462,-229 483.187,-219.244 506.097,-208.921 527.637,-199.316"/>
<polygon fill="black" stroke="black" points="529.064,-202.512 536.776,-195.247 526.217,-196.117 529.064,-202.512"/>
</g>
<!-- com.lihaoyi:derive_sjs0.6_2.11:0.4.3 -->
<g id="node3" class="node"><title>com.lihaoyi:derive_sjs0.6_2.11:0.4.3</title>
<ellipse fill="none" stroke="black" cx="933" cy="-493" rx="103.945" ry="41.7193"/>
<text text-anchor="start" x="894" y="-508.233" font-family="Times Roman,serif" font-size="14.00">com.lihaoyi</text>
<text text-anchor="start" x="868" y="-491.433" font-family="Times Roman,serif" font-size="14.00">derive_sjs0.6_2.11</text>
<text text-anchor="start" x="914.5" y="-474.633" font-family="Times Roman,serif" font-size="14.00">0.4.3</text>
</g>
<!-- com.lihaoyi:upickle_sjs0.6_2.11:0.4.3&#45;&gt;com.lihaoyi:derive_sjs0.6_2.11:0.4.3 -->
<g id="edge4" class="edge"><title>com.lihaoyi:upickle_sjs0.6_2.11:0.4.3&#45;&gt;com.lihaoyi:derive_sjs0.6_2.11:0.4.3</title>
<path fill="none" stroke="black" d="M724.865,-493C755.065,-493 787.991,-493 818.557,-493"/>
<polygon fill="black" stroke="black" points="818.825,-496.5 828.825,-493 818.825,-489.5 818.825,-496.5"/>
</g>
<!-- com.lihaoyi:sourcecode_sjs0.6_2.11:0.1.1 -->
<g id="node4" class="node"><title>com.lihaoyi:sourcecode_sjs0.6_2.11:0.1.1</title>
<ellipse fill="none" stroke="black" cx="1222" cy="-493" rx="126.78" ry="41.7193"/>
<text text-anchor="start" x="1183" y="-508.233" font-family="Times Roman,serif" font-size="14.00">com.lihaoyi</text>
<text text-anchor="start" x="1140.5" y="-491.433" font-family="Times Roman,serif" font-size="14.00">sourcecode_sjs0.6_2.11</text>
<text text-anchor="start" x="1203.5" y="-474.633" font-family="Times Roman,serif" font-size="14.00">0.1.1</text>
</g>
<!-- com.lihaoyi:upickle_sjs0.6_2.11:0.4.3&#45;&gt;com.lihaoyi:sourcecode_sjs0.6_2.11:0.1.1 -->
<g id="edge8" class="edge"><title>com.lihaoyi:upickle_sjs0.6_2.11:0.4.3&#45;&gt;com.lihaoyi:sourcecode_sjs0.6_2.11:0.1.1</title>
<path fill="none" stroke="black" d="M699.698,-519.339C733.517,-528.815 773.261,-538.318 810,-543 918.456,-556.821 947.834,-558.936 1056,-543 1079.58,-539.526 1104.45,-533.417 1127.57,-526.636"/>
<polygon fill="black" stroke="black" points="1128.79,-529.924 1137.36,-523.694 1126.77,-523.22 1128.79,-529.924"/>
</g>
<!-- com.lihaoyi:upickle_sjs0.6_2.11:0.4.3&#45;&gt;org.scala&#45;js:scalajs&#45;library_2.11:0.6.6 -->
<g id="edge20" class="edge"><title>com.lihaoyi:upickle_sjs0.6_2.11:0.4.3&#45;&gt;org.scala&#45;js:scalajs&#45;library_2.11:0.6.6</title>
<path fill="none" stroke="black" d="M701.847,-467.776C735.28,-458.692 774.184,-449.172 810,-443 1007.73,-408.926 1242.28,-411.543 1379,-417.268"/>
<polygon fill="black" stroke="black" points="1378.94,-420.769 1389.08,-417.703 1379.24,-413.775 1378.94,-420.769"/>
</g>
<!-- com.lihaoyi:upickle_sjs0.6_2.11:0.4.3&#45;&gt;org.scala&#45;js:scalajs&#45;library_2.11:0.6.8 -->
<g id="edge28" class="edge"><title>com.lihaoyi:upickle_sjs0.6_2.11:0.4.3&#45;&gt;org.scala&#45;js:scalajs&#45;library_2.11:0.6.8</title>
<path fill="none" stroke="black" d="M687.455,-524.224C723.381,-538.579 768.211,-554.136 810,-562 1053.82,-607.884 1119.92,-574.444 1368,-578 1373.58,-578.08 1379.29,-577.988 1385.05,-577.757"/>
<polygon fill="black" stroke="black" points="1385.65,-581.229 1395.45,-577.197 1385.27,-574.239 1385.65,-581.229"/>
</g>
<!-- com.lihaoyi:derive_sjs0.6_2.11:0.4.3&#45;&gt;com.lihaoyi:sourcecode_sjs0.6_2.11:0.1.1 -->
<g id="edge6" class="edge"><title>com.lihaoyi:derive_sjs0.6_2.11:0.4.3&#45;&gt;com.lihaoyi:sourcecode_sjs0.6_2.11:0.1.1</title>
<path fill="none" stroke="black" d="M1037.34,-493C1052.46,-493 1068.21,-493 1083.87,-493"/>
<polygon fill="black" stroke="black" points="1084.14,-496.5 1094.14,-493 1084.14,-489.5 1084.14,-496.5"/>
</g>
<!-- com.lihaoyi:derive_sjs0.6_2.11:0.4.3&#45;&gt;org.scala&#45;js:scalajs&#45;library_2.11:0.6.6 -->
<g id="edge18" class="edge"><title>com.lihaoyi:derive_sjs0.6_2.11:0.4.3&#45;&gt;org.scala&#45;js:scalajs&#45;library_2.11:0.6.6</title>
<path fill="none" stroke="black" d="M1009.41,-464.924C1035.85,-456.38 1065.9,-447.948 1094,-443 1188.55,-426.352 1297.49,-422.136 1377.78,-421.784"/>
<polygon fill="black" stroke="black" points="1377.93,-425.284 1387.92,-421.759 1377.91,-418.284 1377.93,-425.284"/>
</g>
<!-- com.lihaoyi:derive_sjs0.6_2.11:0.4.3&#45;&gt;org.scala&#45;js:scalajs&#45;library_2.11:0.6.8 -->
<g id="edge26" class="edge"><title>com.lihaoyi:derive_sjs0.6_2.11:0.4.3&#45;&gt;org.scala&#45;js:scalajs&#45;library_2.11:0.6.8</title>
<path fill="none" stroke="black" d="M1009.41,-521.076C1035.85,-529.62 1065.9,-538.052 1094,-543 1188.55,-559.648 1297.49,-563.864 1377.78,-564.216"/>
<polygon fill="black" stroke="black" points="1377.91,-567.716 1387.92,-564.241 1377.93,-560.716 1377.91,-567.716"/>
</g>
<!-- com.lihaoyi:sourcecode_sjs0.6_2.11:0.1.1&#45;&gt;org.scala&#45;js:scalajs&#45;library_2.11:0.6.6 -->
<g id="edge16" class="edge"><title>com.lihaoyi:sourcecode_sjs0.6_2.11:0.1.1&#45;&gt;org.scala&#45;js:scalajs&#45;library_2.11:0.6.6</title>
<path fill="none" stroke="black" d="M1322.12,-467.601C1346.09,-461.522 1371.65,-455.037 1395.54,-448.977"/>
<polygon fill="black" stroke="black" points="1396.48,-452.35 1405.31,-446.498 1394.76,-445.565 1396.48,-452.35"/>
</g>
<!-- com.lihaoyi:sourcecode_sjs0.6_2.11:0.1.1&#45;&gt;org.scala&#45;js:scalajs&#45;library_2.11:0.6.8 -->
<g id="edge24" class="edge"><title>com.lihaoyi:sourcecode_sjs0.6_2.11:0.1.1&#45;&gt;org.scala&#45;js:scalajs&#45;library_2.11:0.6.8</title>
<path fill="none" stroke="black" d="M1322.12,-518.399C1346.09,-524.478 1371.65,-530.963 1395.54,-537.023"/>
<polygon fill="black" stroke="black" points="1394.76,-540.435 1405.31,-539.502 1396.48,-533.65 1394.76,-540.435"/>
</g>
<!-- org.tukaani:xz:1.0 -->
<g id="node6" class="node"><title>org.tukaani:xz:1.0</title>
<ellipse fill="none" stroke="black" cx="933" cy="-279" rx="68.0887" ry="41.7193"/>
<text text-anchor="start" x="893" y="-294.233" font-family="Times Roman,serif" font-size="14.00">org.tukaani</text>
<text text-anchor="start" x="924.5" y="-277.433" font-family="Times Roman,serif" font-size="14.00">xz</text>
<text text-anchor="start" x="921.5" y="-260.633" font-family="Times Roman,serif" font-size="14.00">1.0</text>
</g>
<!-- org.apache.commons:commons&#45;compress:1.4.1&#45;&gt;org.tukaani:xz:1.0 -->
<g id="edge12" class="edge"><title>org.apache.commons:commons&#45;compress:1.4.1&#45;&gt;org.tukaani:xz:1.0</title>
<path fill="none" stroke="black" d="M731.53,-279C772.215,-279 817.071,-279 854.109,-279"/>
<polygon fill="black" stroke="black" points="854.338,-282.5 864.338,-279 854.338,-275.5 854.338,-282.5"/>
</g>
<!-- org.scala&#45;js:scalajs&#45;library_2.11:0.6.13 -->
<g id="node7" class="node"><title>org.scala&#45;js:scalajs&#45;library_2.11:0.6.13</title>
<ellipse fill="none" stroke="black" cx="1816" cy="-504" rx="106.066" ry="41.7193"/>
<text text-anchor="start" x="1777.5" y="-519.233" font-family="Times Roman,serif" font-size="14.00">org.scala&#45;js</text>
<text text-anchor="start" x="1749.5" y="-502.433" font-family="Times Roman,serif" font-size="14.00">scalajs&#45;library_2.11</text>
<text text-anchor="start" x="1793" y="-485.633" font-family="Times Roman,serif" font-size="14.00">0.6.13</text>
</g>
<!-- org.scala&#45;js:scalajs&#45;library_2.11:0.6.6&#45;&gt;org.scala&#45;js:scalajs&#45;library_2.11:0.6.13 -->
<g id="edge40" class="edge"><title>org.scala&#45;js:scalajs&#45;library_2.11:0.6.6&#45;&gt;org.scala&#45;js:scalajs&#45;library_2.11:0.6.13</title>
<path fill="none" stroke="black" d="M1583.27,-446.178C1624.71,-456.474 1674.12,-468.75 1716.73,-479.337"/>
<polygon fill="black" stroke="black" points="1716.01,-482.764 1726.56,-481.779 1717.7,-475.971 1716.01,-482.764"/>
<text text-anchor="middle" x="1655" y="-476.4" font-family="Times Roman,serif" font-size="14.00">Evicted By</text>
</g>
<!-- org.scala&#45;js:scalajs&#45;library_2.11:0.6.8&#45;&gt;org.scala&#45;js:scalajs&#45;library_2.11:0.6.13 -->
<g id="edge42" class="edge"><title>org.scala&#45;js:scalajs&#45;library_2.11:0.6.8&#45;&gt;org.scala&#45;js:scalajs&#45;library_2.11:0.6.13</title>
<path fill="none" stroke="black" d="M1590.17,-544.677C1627.77,-537.905 1671.03,-530.113 1709.56,-523.173"/>
<polygon fill="black" stroke="black" points="1710.54,-526.552 1719.77,-521.334 1709.3,-519.662 1710.54,-526.552"/>
<text text-anchor="middle" x="1655" y="-543.4" font-family="Times Roman,serif" font-size="14.00">Evicted By</text>
</g>
<!-- org.scala&#45;lang:scala&#45;reflect:2.11.8 -->
<g id="node10" class="node"><title>org.scala&#45;lang:scala&#45;reflect:2.11.8</title>
<ellipse fill="none" stroke="black" cx="1222" cy="-187" rx="79.9031" ry="41.7193"/>
<text text-anchor="start" x="1174" y="-202.233" font-family="Times Roman,serif" font-size="14.00">org.scala&#45;lang</text>
<text text-anchor="start" x="1180" y="-185.433" font-family="Times Roman,serif" font-size="14.00">scala&#45;reflect</text>
<text text-anchor="start" x="1199" y="-168.633" font-family="Times Roman,serif" font-size="14.00">2.11.8</text>
</g>
<!-- com.sksamuel.scapegoat:scalac&#45;scapegoat&#45;plugin_2.11:1.0.0&#45;&gt;org.scala&#45;lang:scala&#45;reflect:2.11.8 -->
<g id="edge32" class="edge"><title>com.sksamuel.scapegoat:scalac&#45;scapegoat&#45;plugin_2.11:1.0.0&#45;&gt;org.scala&#45;lang:scala&#45;reflect:2.11.8</title>
<path fill="none" stroke="black" d="M744.348,-183.392C766.177,-186.558 788.688,-189.299 810,-191 918.987,-199.697 946.675,-192.317 1056,-191 1080.58,-190.704 1107.19,-190.161 1131.77,-189.57"/>
<polygon fill="black" stroke="black" points="1131.88,-193.068 1141.8,-189.323 1131.71,-186.07 1131.88,-193.068"/>
</g>
<!-- org.scaldi:scaldi_2.11:0.4 -->
<g id="node12" class="node"><title>org.scaldi:scaldi_2.11:0.4</title>
<ellipse fill="none" stroke="black" cx="933" cy="-141" rx="65.9683" ry="41.7193"/>
<text text-anchor="start" x="900.5" y="-156.233" font-family="Times Roman,serif" font-size="14.00">org.scaldi</text>
<text text-anchor="start" x="894.5" y="-139.433" font-family="Times Roman,serif" font-size="14.00">scaldi_2.11</text>
<text text-anchor="start" x="921.5" y="-122.633" font-family="Times Roman,serif" font-size="14.00">0.4</text>
</g>
<!-- com.sksamuel.scapegoat:scalac&#45;scapegoat&#45;plugin_2.11:1.0.0&#45;&gt;org.scaldi:scaldi_2.11:0.4 -->
<g id="edge36" class="edge"><title>com.sksamuel.scapegoat:scalac&#45;scapegoat&#45;plugin_2.11:1.0.0&#45;&gt;org.scaldi:scaldi_2.11:0.4</title>
<path fill="none" stroke="black" d="M768.521,-150.89C799.14,-149.049 830.084,-147.188 856.743,-145.585"/>
<polygon fill="black" stroke="black" points="856.969,-149.078 866.741,-144.984 856.549,-142.091 856.969,-149.078"/>
</g>
<!-- org.scala&#45;lang.modules:scala&#45;xml_2.11:1.0.2 -->
<g id="node13" class="node"><title>org.scala&#45;lang.modules:scala&#45;xml_2.11:1.0.2</title>
<ellipse fill="none" stroke="black" cx="933" cy="-41" rx="123.037" ry="41.7193"/>
<text text-anchor="start" x="854.5" y="-56.2333" font-family="Times Roman,serif" font-size="14.00">org.scala&#45;lang.modules</text>
<text text-anchor="start" x="881.5" y="-39.4333" font-family="Times Roman,serif" font-size="14.00">scala&#45;xml_2.11</text>
<text text-anchor="start" x="914.5" y="-22.6333" font-family="Times Roman,serif" font-size="14.00">1.0.2</text>
</g>
<!-- com.sksamuel.scapegoat:scalac&#45;scapegoat&#45;plugin_2.11:1.0.0&#45;&gt;org.scala&#45;lang.modules:scala&#45;xml_2.11:1.0.2 -->
<g id="edge38" class="edge"><title>com.sksamuel.scapegoat:scalac&#45;scapegoat&#45;plugin_2.11:1.0.0&#45;&gt;org.scala&#45;lang.modules:scala&#45;xml_2.11:1.0.2</title>
<path fill="none" stroke="black" d="M706.286,-126.377C748.62,-110.434 799.128,-91.4137 841.715,-75.3762"/>
<polygon fill="black" stroke="black" points="843.11,-78.591 851.235,-71.7913 840.643,-72.0401 843.11,-78.591"/>
</g>
<!-- org.scaldi:scaldi_2.11:0.4&#45;&gt;org.scala&#45;lang:scala&#45;reflect:2.11.8 -->
<g id="edge30" class="edge"><title>org.scaldi:scaldi_2.11:0.4&#45;&gt;org.scala&#45;lang:scala&#45;reflect:2.11.8</title>
<path fill="none" stroke="black" d="M997.498,-151.266C1038.17,-157.74 1091.2,-166.18 1135.5,-173.232"/>
<polygon fill="black" stroke="black" points="1134.97,-176.691 1145.4,-174.807 1136.07,-169.778 1134.97,-176.691"/>
</g>
</g>
</svg>
