<?xml version="1.0" encoding="UTF-8" standalone="no"?>
<!DOCTYPE svg PUBLIC "-//W3C//DTD SVG 1.1//EN"
 "http://www.w3.org/Graphics/SVG/1.1/DTD/svg11.dtd">
<!-- Generated by graphviz version 2.36.0 (20140111.2315)
 -->
<!-- Title: dependency&#45;graph Pages: 1 -->
<svg width="1666pt" height="599pt"
 viewBox="0.00 0.00 1666.00 599.00" xmlns="http://www.w3.org/2000/svg" xmlns:xlink="http://www.w3.org/1999/xlink">
<g id="graph0" class="graph" transform="scale(1 1) rotate(0) translate(4 595)">
<title>dependency&#45;graph</title>
<polygon fill="white" stroke="none" points="-4,4 -4,-595 1662,-595 1662,4 -4,4"/>
<!-- gov.nasa.jpl.imce:gov&#45;nasa&#45;jpl&#45;imce&#45;oml&#45;tables_sjs0.6_2.11:0.90.0&#45;M02 -->
<g id="node1" class="node"><title>gov.nasa.jpl.imce:gov&#45;nasa&#45;jpl&#45;imce&#45;oml&#45;tables_sjs0.6_2.11:0.90.0&#45;M02</title>
<ellipse fill="none" stroke="black" cx="181" cy="-313" rx="180.125" ry="35.2113"/>
<text text-anchor="start" x="132.5" y="-323.8" font-family="Times,serif" font-size="14.00">gov.nasa.jpl.imce</text>
<text text-anchor="start" x="61.5" y="-309.8" font-family="Times,serif" font-weight="bold" font-size="14.00">gov&#45;nasa&#45;jpl&#45;imce&#45;oml&#45;tables_sjs0.6_2.11</text>
<text text-anchor="start" x="148" y="-295.8" font-family="Times,serif" font-size="14.00">0.90.0&#45;M02</text>
</g>
<!-- com.lihaoyi:upickle_sjs0.6_2.11:0.4.3 -->
<g id="node2" class="node"><title>com.lihaoyi:upickle_sjs0.6_2.11:0.4.3</title>
<ellipse fill="none" stroke="black" cx="530" cy="-452" rx="90.5193" ry="35.2113"/>
<text text-anchor="start" x="497" y="-462.8" font-family="Times,serif" font-size="14.00">com.lihaoyi</text>
<text text-anchor="start" x="474" y="-448.8" font-family="Times,serif" font-weight="bold" font-size="14.00">upickle_sjs0.6_2.11</text>
<text text-anchor="start" x="516" y="-434.8" font-family="Times,serif" font-size="14.00">0.4.3</text>
</g>
<!-- gov.nasa.jpl.imce:gov&#45;nasa&#45;jpl&#45;imce&#45;oml&#45;tables_sjs0.6_2.11:0.90.0&#45;M02&#45;&gt;com.lihaoyi:upickle_sjs0.6_2.11:0.4.3 -->
<g id="edge1" class="edge"><title>gov.nasa.jpl.imce:gov&#45;nasa&#45;jpl&#45;imce&#45;oml&#45;tables_sjs0.6_2.11:0.90.0&#45;M02&#45;&gt;com.lihaoyi:upickle_sjs0.6_2.11:0.4.3</title>
<path fill="none" stroke="black" d="M261.174,-344.715C320.102,-368.32 399.887,-400.28 457.017,-423.165"/>
<polygon fill="black" stroke="black" points="455.756,-426.431 466.341,-426.9 458.359,-419.933 455.756,-426.431"/>
</g>
<!-- org.apache.commons:commons&#45;compress:1.4.1 -->
<g id="node5" class="node"><title>org.apache.commons:commons&#45;compress:1.4.1</title>
<ellipse fill="none" stroke="black" cx="530" cy="-250" rx="94.5053" ry="35.2113"/>
<text text-anchor="start" x="471" y="-260.8" font-family="Times,serif" font-size="14.00">org.apache.commons</text>
<text text-anchor="start" x="472" y="-246.8" font-family="Times,serif" font-weight="bold" font-size="14.00">commons&#45;compress</text>
<text text-anchor="start" x="516" y="-232.8" font-family="Times,serif" font-size="14.00">1.4.1</text>
</g>
<!-- gov.nasa.jpl.imce:gov&#45;nasa&#45;jpl&#45;imce&#45;oml&#45;tables_sjs0.6_2.11:0.90.0&#45;M02&#45;&gt;org.apache.commons:commons&#45;compress:1.4.1 -->
<g id="edge5" class="edge"><title>gov.nasa.jpl.imce:gov&#45;nasa&#45;jpl&#45;imce&#45;oml&#45;tables_sjs0.6_2.11:0.90.0&#45;M02&#45;&gt;org.apache.commons:commons&#45;compress:1.4.1</title>
<path fill="none" stroke="black" d="M313.681,-289.093C353.984,-281.775 397.489,-273.877 434.773,-267.107"/>
<polygon fill="black" stroke="black" points="435.399,-270.551 444.613,-265.321 434.148,-263.664 435.399,-270.551"/>
</g>
<!-- org.scala&#45;js:scalajs&#45;library_2.11:0.6.6 -->
<g id="node8" class="node"><title>org.scala&#45;js:scalajs&#45;library_2.11:0.6.6</title>
<ellipse fill="none" stroke="black" cx="1281" cy="-389" rx="92.7622" ry="35.2113"/>
<text text-anchor="start" x="1249.5" y="-399.8" font-family="Times,serif" font-size="14.00">org.scala&#45;js</text>
<text text-anchor="start" x="1223.5" y="-385.8" font-family="Times,serif" font-weight="bold" font-size="14.00">scalajs&#45;library_2.11</text>
<text text-anchor="start" x="1267" y="-371.8" font-family="Times,serif" font-size="14.00">0.6.6</text>
</g>
<!-- gov.nasa.jpl.imce:gov&#45;nasa&#45;jpl&#45;imce&#45;oml&#45;tables_sjs0.6_2.11:0.90.0&#45;M02&#45;&gt;org.scala&#45;js:scalajs&#45;library_2.11:0.6.6 -->
<g id="edge8" class="edge"><title>gov.nasa.jpl.imce:gov&#45;nasa&#45;jpl&#45;imce&#45;oml&#45;tables_sjs0.6_2.11:0.90.0&#45;M02&#45;&gt;org.scala&#45;js:scalajs&#45;library_2.11:0.6.6</title>
<path fill="none" stroke="black" d="M361.652,-313C415.469,-313 474.631,-313 529,-313 529,-313 529,-313 1045,-313 1105.17,-313 1169.99,-335.837 1216.28,-356.475"/>
<polygon fill="black" stroke="black" points="1215.02,-359.748 1225.58,-360.7 1217.92,-353.376 1215.02,-359.748"/>
</g>
<!-- org.scala&#45;js:scalajs&#45;library_2.11:0.6.8 -->
<g id="node9" class="node"><title>org.scala&#45;js:scalajs&#45;library_2.11:0.6.8</title>
<ellipse fill="none" stroke="black" cx="1281" cy="-515" rx="92.7622" ry="35.2113"/>
<text text-anchor="start" x="1249.5" y="-525.8" font-family="Times,serif" font-size="14.00">org.scala&#45;js</text>
<text text-anchor="start" x="1223.5" y="-511.8" font-family="Times,serif" font-weight="bold" font-size="14.00">scalajs&#45;library_2.11</text>
<text text-anchor="start" x="1267" y="-497.8" font-family="Times,serif" font-size="14.00">0.6.8</text>
</g>
<!-- gov.nasa.jpl.imce:gov&#45;nasa&#45;jpl&#45;imce&#45;oml&#45;tables_sjs0.6_2.11:0.90.0&#45;M02&#45;&gt;org.scala&#45;js:scalajs&#45;library_2.11:0.6.8 -->
<g id="edge13" class="edge"><title>gov.nasa.jpl.imce:gov&#45;nasa&#45;jpl&#45;imce&#45;oml&#45;tables_sjs0.6_2.11:0.90.0&#45;M02&#45;&gt;org.scala&#45;js:scalajs&#45;library_2.11:0.6.8</title>
<path fill="none" stroke="black" d="M202.922,-347.927C250.602,-422.592 375.195,-591 529,-591 529,-591 529,-591 1045,-591 1105.17,-591 1169.99,-568.163 1216.28,-547.525"/>
<polygon fill="black" stroke="black" points="1217.92,-550.624 1225.58,-543.3 1215.02,-544.252 1217.92,-550.624"/>
</g>
<!-- com.sksamuel.scapegoat:scalac&#45;scapegoat&#45;plugin_2.11:1.0.0 -->
<g id="node11" class="node"><title>com.sksamuel.scapegoat:scalac&#45;scapegoat&#45;plugin_2.11:1.0.0</title>
<ellipse fill="none" stroke="black" cx="530" cy="-143" rx="130.215" ry="35.2113"/>
<text text-anchor="start" x="462" y="-153.8" font-family="Times,serif" font-size="14.00">com.sksamuel.scapegoat</text>
<text text-anchor="start" x="446" y="-139.8" font-family="Times,serif" font-weight="bold" font-size="14.00">scalac&#45;scapegoat&#45;plugin_2.11</text>
<text text-anchor="start" x="516" y="-125.8" font-family="Times,serif" font-size="14.00">1.0.0</text>
</g>
<!-- gov.nasa.jpl.imce:gov&#45;nasa&#45;jpl&#45;imce&#45;oml&#45;tables_sjs0.6_2.11:0.90.0&#45;M02&#45;&gt;com.sksamuel.scapegoat:scalac&#45;scapegoat&#45;plugin_2.11:1.0.0 -->
<g id="edge17" class="edge"><title>gov.nasa.jpl.imce:gov&#45;nasa&#45;jpl&#45;imce&#45;oml&#45;tables_sjs0.6_2.11:0.90.0&#45;M02&#45;&gt;com.sksamuel.scapegoat:scalac&#45;scapegoat&#45;plugin_2.11:1.0.0</title>
<path fill="none" stroke="black" d="M248.771,-280.185C291.909,-258.994 349.26,-230.842 400,-206 418.468,-196.958 438.43,-187.201 457.005,-178.129"/>
<polygon fill="black" stroke="black" points="458.55,-181.27 466,-173.737 455.478,-174.98 458.55,-181.27"/>
</g>
<!-- com.lihaoyi:derive_sjs0.6_2.11:0.4.3 -->
<g id="node3" class="node"><title>com.lihaoyi:derive_sjs0.6_2.11:0.4.3</title>
<ellipse fill="none" stroke="black" cx="799" cy="-452" rx="86.0347" ry="35.2113"/>
<text text-anchor="start" x="766" y="-462.8" font-family="Times,serif" font-size="14.00">com.lihaoyi</text>
<text text-anchor="start" x="746" y="-448.8" font-family="Times,serif" font-weight="bold" font-size="14.00">derive_sjs0.6_2.11</text>
<text text-anchor="start" x="785" y="-434.8" font-family="Times,serif" font-size="14.00">0.4.3</text>
</g>
<!-- com.lihaoyi:upickle_sjs0.6_2.11:0.4.3&#45;&gt;com.lihaoyi:derive_sjs0.6_2.11:0.4.3 -->
<g id="edge2" class="edge"><title>com.lihaoyi:upickle_sjs0.6_2.11:0.4.3&#45;&gt;com.lihaoyi:derive_sjs0.6_2.11:0.4.3</title>
<path fill="none" stroke="black" d="M620.65,-452C646.98,-452 675.869,-452 702.547,-452"/>
<polygon fill="black" stroke="black" points="702.653,-455.5 712.653,-452 702.653,-448.5 702.653,-455.5"/>
</g>
<!-- com.lihaoyi:sourcecode_sjs0.6_2.11:0.1.1 -->
<g id="node4" class="node"><title>com.lihaoyi:sourcecode_sjs0.6_2.11:0.1.1</title>
<ellipse fill="none" stroke="black" cx="1044" cy="-452" rx="106.132" ry="35.2113"/>
<text text-anchor="start" x="1011" y="-462.8" font-family="Times,serif" font-size="14.00">com.lihaoyi</text>
<text text-anchor="start" x="977" y="-448.8" font-family="Times,serif" font-weight="bold" font-size="14.00">sourcecode_sjs0.6_2.11</text>
<text text-anchor="start" x="1030" y="-434.8" font-family="Times,serif" font-size="14.00">0.1.1</text>
</g>
<!-- com.lihaoyi:upickle_sjs0.6_2.11:0.4.3&#45;&gt;com.lihaoyi:sourcecode_sjs0.6_2.11:0.1.1 -->
<g id="edge4" class="edge"><title>com.lihaoyi:upickle_sjs0.6_2.11:0.4.3&#45;&gt;com.lihaoyi:sourcecode_sjs0.6_2.11:0.1.1</title>
<path fill="none" stroke="black" d="M600.082,-474.476C629.86,-483.044 665.292,-491.764 698,-496 787.034,-507.532 811.22,-509.35 900,-496 920.75,-492.88 942.643,-487.348 962.892,-481.236"/>
<polygon fill="black" stroke="black" points="964.174,-484.503 972.689,-478.198 962.101,-477.818 964.174,-484.503"/>
</g>
<!-- com.lihaoyi:upickle_sjs0.6_2.11:0.4.3&#45;&gt;org.scala&#45;js:scalajs&#45;library_2.11:0.6.6 -->
<g id="edge10" class="edge"><title>com.lihaoyi:upickle_sjs0.6_2.11:0.4.3&#45;&gt;org.scala&#45;js:scalajs&#45;library_2.11:0.6.6</title>
<path fill="none" stroke="black" d="M601.96,-430.655C631.433,-422.484 666.134,-413.754 698,-408 864.633,-377.911 1062.36,-379.062 1179.16,-383.453"/>
<polygon fill="black" stroke="black" points="1179.03,-386.951 1189.16,-383.845 1179.31,-379.956 1179.03,-386.951"/>
</g>
<!-- com.lihaoyi:upickle_sjs0.6_2.11:0.4.3&#45;&gt;org.scala&#45;js:scalajs&#45;library_2.11:0.6.8 -->
<g id="edge14" class="edge"><title>com.lihaoyi:upickle_sjs0.6_2.11:0.4.3&#45;&gt;org.scala&#45;js:scalajs&#45;library_2.11:0.6.8</title>
<path fill="none" stroke="black" d="M588.726,-479.009C620.266,-492.326 660.452,-507.001 698,-514 903.456,-552.298 959.031,-525.666 1168,-529 1173.45,-529.087 1179.04,-528.99 1184.67,-528.747"/>
<polygon fill="black" stroke="black" points="1185.05,-532.231 1194.83,-528.163 1184.65,-525.243 1185.05,-532.231"/>
</g>
<!-- com.lihaoyi:derive_sjs0.6_2.11:0.4.3&#45;&gt;com.lihaoyi:sourcecode_sjs0.6_2.11:0.1.1 -->
<g id="edge3" class="edge"><title>com.lihaoyi:derive_sjs0.6_2.11:0.4.3&#45;&gt;com.lihaoyi:sourcecode_sjs0.6_2.11:0.1.1</title>
<path fill="none" stroke="black" d="M885.331,-452C898.977,-452 913.292,-452 927.497,-452"/>
<polygon fill="black" stroke="black" points="927.811,-455.5 937.811,-452 927.811,-448.5 927.811,-455.5"/>
</g>
<!-- com.lihaoyi:derive_sjs0.6_2.11:0.4.3&#45;&gt;org.scala&#45;js:scalajs&#45;library_2.11:0.6.6 -->
<g id="edge9" class="edge"><title>com.lihaoyi:derive_sjs0.6_2.11:0.4.3&#45;&gt;org.scala&#45;js:scalajs&#45;library_2.11:0.6.6</title>
<path fill="none" stroke="black" d="M863.038,-428.2C886.272,-420.418 913.022,-412.599 938,-408 1017.69,-393.329 1109.43,-388.892 1177.82,-387.952"/>
<polygon fill="black" stroke="black" points="1178.21,-391.448 1188.17,-387.834 1178.13,-384.449 1178.21,-391.448"/>
</g>
<!-- com.lihaoyi:derive_sjs0.6_2.11:0.4.3&#45;&gt;org.scala&#45;js:scalajs&#45;library_2.11:0.6.8 -->
<g id="edge12" class="edge"><title>com.lihaoyi:derive_sjs0.6_2.11:0.4.3&#45;&gt;org.scala&#45;js:scalajs&#45;library_2.11:0.6.8</title>
<path fill="none" stroke="black" d="M863.038,-475.8C886.272,-483.582 913.022,-491.401 938,-496 1017.69,-510.671 1109.43,-515.108 1177.82,-516.048"/>
<polygon fill="black" stroke="black" points="1178.13,-519.551 1188.17,-516.166 1178.21,-512.552 1178.13,-519.551"/>
</g>
<!-- com.lihaoyi:sourcecode_sjs0.6_2.11:0.1.1&#45;&gt;org.scala&#45;js:scalajs&#45;library_2.11:0.6.6 -->
<g id="edge7" class="edge"><title>com.lihaoyi:sourcecode_sjs0.6_2.11:0.1.1&#45;&gt;org.scala&#45;js:scalajs&#45;library_2.11:0.6.6</title>
<path fill="none" stroke="black" d="M1127.19,-429.966C1149.21,-424.062 1173.06,-417.669 1195.22,-411.729"/>
<polygon fill="black" stroke="black" points="1196.18,-415.095 1204.93,-409.124 1194.37,-408.333 1196.18,-415.095"/>
</g>
<!-- com.lihaoyi:sourcecode_sjs0.6_2.11:0.1.1&#45;&gt;org.scala&#45;js:scalajs&#45;library_2.11:0.6.8 -->
<g id="edge11" class="edge"><title>com.lihaoyi:sourcecode_sjs0.6_2.11:0.1.1&#45;&gt;org.scala&#45;js:scalajs&#45;library_2.11:0.6.8</title>
<path fill="none" stroke="black" d="M1127.19,-474.034C1149.21,-479.938 1173.06,-486.331 1195.22,-492.271"/>
<polygon fill="black" stroke="black" points="1194.37,-495.667 1204.93,-494.876 1196.18,-488.905 1194.37,-495.667"/>
</g>
<!-- org.tukaani:xz:1.0 -->
<g id="node6" class="node"><title>org.tukaani:xz:1.0</title>
<ellipse fill="none" stroke="black" cx="799" cy="-250" rx="55.3091" ry="35.2113"/>
<text text-anchor="start" x="768" y="-260.8" font-family="Times,serif" font-size="14.00">org.tukaani</text>
<text text-anchor="start" x="792.5" y="-246.8" font-family="Times,serif" font-weight="bold" font-size="14.00">xz</text>
<text text-anchor="start" x="790" y="-232.8" font-family="Times,serif" font-size="14.00">1.0</text>
</g>
<!-- org.apache.commons:commons&#45;compress:1.4.1&#45;&gt;org.tukaani:xz:1.0 -->
<g id="edge6" class="edge"><title>org.apache.commons:commons&#45;compress:1.4.1&#45;&gt;org.tukaani:xz:1.0</title>
<path fill="none" stroke="black" d="M624.759,-250C660.689,-250 700.846,-250 733.444,-250"/>
<polygon fill="black" stroke="black" points="733.747,-253.5 743.747,-250 733.747,-246.5 733.747,-253.5"/>
</g>
<!-- org.scala&#45;js:scalajs&#45;library_2.11:0.6.15 -->
<g id="node7" class="node"><title>org.scala&#45;js:scalajs&#45;library_2.11:0.6.15</title>
<ellipse fill="none" stroke="black" cx="1565" cy="-463" rx="92.7622" ry="35.2113"/>
<text text-anchor="start" x="1533.5" y="-473.8" font-family="Times,serif" font-size="14.00">org.scala&#45;js</text>
<text text-anchor="start" x="1507.5" y="-459.8" font-family="Times,serif" font-weight="bold" font-size="14.00">scalajs&#45;library_2.11</text>
<text text-anchor="start" x="1547.5" y="-445.8" font-family="Times,serif" font-size="14.00">0.6.15</text>
</g>
<!-- org.scala&#45;js:scalajs&#45;library_2.11:0.6.6&#45;&gt;org.scala&#45;js:scalajs&#45;library_2.11:0.6.15 -->
<g id="edge20" class="edge"><title>org.scala&#45;js:scalajs&#45;library_2.11:0.6.6&#45;&gt;org.scala&#45;js:scalajs&#45;library_2.11:0.6.15</title>
<path fill="none" stroke="black" d="M1357.57,-408.831C1394.71,-418.577 1439.64,-430.366 1478.08,-440.454"/>
<polygon fill="black" stroke="black" points="1477.66,-443.962 1488.22,-443.115 1479.44,-437.191 1477.66,-443.962"/>
<text text-anchor="middle" x="1423" y="-435.8" font-family="Times,serif" font-size="14.00">Evicted By</text>
</g>
<!-- org.scala&#45;js:scalajs&#45;library_2.11:0.6.8&#45;&gt;org.scala&#45;js:scalajs&#45;library_2.11:0.6.15 -->
<g id="edge21" class="edge"><title>org.scala&#45;js:scalajs&#45;library_2.11:0.6.8&#45;&gt;org.scala&#45;js:scalajs&#45;library_2.11:0.6.15</title>
<path fill="none" stroke="black" d="M1364.7,-499.75C1398.13,-493.585 1436.87,-486.443 1471.25,-480.102"/>
<polygon fill="black" stroke="black" points="1472.1,-483.506 1481.3,-478.25 1470.83,-476.622 1472.1,-483.506"/>
<text text-anchor="middle" x="1423" y="-496.8" font-family="Times,serif" font-size="14.00">Evicted By</text>
</g>
<!-- org.scala&#45;lang:scala&#45;reflect:2.11.8 -->
<g id="node10" class="node"><title>org.scala&#45;lang:scala&#45;reflect:2.11.8</title>
<ellipse fill="none" stroke="black" cx="1044" cy="-165" rx="65.5227" ry="35.2113"/>
<text text-anchor="start" x="1005.5" y="-175.8" font-family="Times,serif" font-size="14.00">org.scala&#45;lang</text>
<text text-anchor="start" x="1009" y="-161.8" font-family="Times,serif" font-weight="bold" font-size="14.00">scala&#45;reflect</text>
<text text-anchor="start" x="1026.5" y="-147.8" font-family="Times,serif" font-size="14.00">2.11.8</text>
</g>
<!-- com.sksamuel.scapegoat:scalac&#45;scapegoat&#45;plugin_2.11:1.0.0&#45;&gt;org.scala&#45;lang:scala&#45;reflect:2.11.8 -->
<g id="edge16" class="edge"><title>com.sksamuel.scapegoat:scalac&#45;scapegoat&#45;plugin_2.11:1.0.0&#45;&gt;org.scala&#45;lang:scala&#45;reflect:2.11.8</title>
<path fill="none" stroke="black" d="M640.332,-161.744C659.497,-164.348 679.289,-166.607 698,-168 787.53,-174.664 810.227,-168.942 900,-168 922.079,-167.768 946.072,-167.336 967.986,-166.87"/>
<polygon fill="black" stroke="black" points="968.304,-170.364 978.225,-166.646 968.151,-163.365 968.304,-170.364"/>
</g>
<!-- org.scaldi:scaldi_2.11:0.4 -->
<g id="node12" class="node"><title>org.scaldi:scaldi_2.11:0.4</title>
<ellipse fill="none" stroke="black" cx="799" cy="-124" rx="56.6372" ry="35.2113"/>
<text text-anchor="start" x="772" y="-134.8" font-family="Times,serif" font-size="14.00">org.scaldi</text>
<text text-anchor="start" x="767" y="-120.8" font-family="Times,serif" font-weight="bold" font-size="14.00">scaldi_2.11</text>
<text text-anchor="start" x="790" y="-106.8" font-family="Times,serif" font-size="14.00">0.4</text>
</g>
<!-- com.sksamuel.scapegoat:scalac&#45;scapegoat&#45;plugin_2.11:1.0.0&#45;&gt;org.scaldi:scaldi_2.11:0.4 -->
<g id="edge18" class="edge"><title>com.sksamuel.scapegoat:scalac&#45;scapegoat&#45;plugin_2.11:1.0.0&#45;&gt;org.scaldi:scaldi_2.11:0.4</title>
<path fill="none" stroke="black" d="M655.901,-134.112C682.384,-132.227 709.319,-130.311 732.517,-128.66"/>
<polygon fill="black" stroke="black" points="732.83,-132.147 742.556,-127.945 732.333,-125.164 732.83,-132.147"/>
</g>
<!-- org.scala&#45;lang.modules:scala&#45;xml_2.11:1.0.2 -->
<g id="node13" class="node"><title>org.scala&#45;lang.modules:scala&#45;xml_2.11:1.0.2</title>
<ellipse fill="none" stroke="black" cx="799" cy="-35" rx="101.233" ry="35.2113"/>
<text text-anchor="start" x="735.5" y="-45.8" font-family="Times,serif" font-size="14.00">org.scala&#45;lang.modules</text>
<text text-anchor="start" x="755.5" y="-31.8" font-family="Times,serif" font-weight="bold" font-size="14.00">scala&#45;xml_2.11</text>
<text text-anchor="start" x="785" y="-17.8" font-family="Times,serif" font-size="14.00">1.0.2</text>
</g>
<!-- com.sksamuel.scapegoat:scalac&#45;scapegoat&#45;plugin_2.11:1.0.0&#45;&gt;org.scala&#45;lang.modules:scala&#45;xml_2.11:1.0.2 -->
<g id="edge19" class="edge"><title>com.sksamuel.scapegoat:scalac&#45;scapegoat&#45;plugin_2.11:1.0.0&#45;&gt;org.scala&#45;lang.modules:scala&#45;xml_2.11:1.0.2</title>
<path fill="none" stroke="black" d="M603.254,-113.774C640.271,-98.8004 685.31,-80.5826 722.746,-65.4396"/>
<polygon fill="black" stroke="black" points="724.133,-68.6543 732.091,-61.6598 721.508,-62.1651 724.133,-68.6543"/>
</g>
<!-- org.scaldi:scaldi_2.11:0.4&#45;&gt;org.scala&#45;lang:scala&#45;reflect:2.11.8 -->
<g id="edge15" class="edge"><title>org.scaldi:scaldi_2.11:0.4&#45;&gt;org.scala&#45;lang:scala&#45;reflect:2.11.8</title>
<path fill="none" stroke="black" d="M853.93,-133.099C888.457,-138.925 933.658,-146.551 971.207,-152.887"/>
<polygon fill="black" stroke="black" points="970.634,-156.339 981.077,-154.552 971.798,-149.437 970.634,-156.339"/>
</g>
</g>
</svg>
