<?xml version="1.0" encoding="UTF-8" standalone="no"?>
<!DOCTYPE svg PUBLIC "-//W3C//DTD SVG 1.1//EN"
 "http://www.w3.org/Graphics/SVG/1.1/DTD/svg11.dtd">
<!-- Generated by graphviz version 2.26.3 (20100126.1600)
 -->
<!-- Title: dependency&#45;graph Pages: 1 -->
<svg width="1864pt" height="546pt"
 viewBox="0.00 0.00 1864.00 546.00" xmlns="http://www.w3.org/2000/svg" xmlns:xlink="http://www.w3.org/1999/xlink">
<g id="graph1" class="graph" transform="scale(1 1) rotate(0) translate(4 542)">
<title>dependency&#45;graph</title>
<polygon fill="white" stroke="white" points="-4,5 -4,-542 1861,-542 1861,5 -4,5"/>
<!-- gov.nasa.jpl.imce:jpl&#45;omf&#45;schema&#45;tables_sjs0.6_2.11:0.2.0 -->
<g id="node1" class="node"><title>gov.nasa.jpl.imce:jpl&#45;omf&#45;schema&#45;tables_sjs0.6_2.11:0.2.0</title>
<ellipse fill="none" stroke="black" cx="179" cy="-281" rx="178.898" ry="41.7193"/>
<text text-anchor="start" x="120" y="-296.233" font-family="Times Roman,serif" font-size="14.00">gov.nasa.jpl.imce</text>
<text text-anchor="start" x="61" y="-279.433" font-family="Times Roman,serif" font-size="14.00">jpl&#45;omf&#45;schema&#45;tables_sjs0.6_2.11</text>
<text text-anchor="start" x="160.5" y="-262.633" font-family="Times Roman,serif" font-size="14.00">0.2.0</text>
</g>
<!-- com.lihaoyi:upickle_sjs0.6_2.11:0.4.1 -->
<g id="node2" class="node"><title>com.lihaoyi:upickle_sjs0.6_2.11:0.4.1</title>
<ellipse fill="none" stroke="black" cx="551" cy="-355" rx="106.98" ry="41.7193"/>
<text text-anchor="start" x="512" y="-370.233" font-family="Times Roman,serif" font-size="14.00">com.lihaoyi</text>
<text text-anchor="start" x="483.5" y="-353.433" font-family="Times Roman,serif" font-size="14.00">upickle_sjs0.6_2.11</text>
<text text-anchor="start" x="532.5" y="-336.633" font-family="Times Roman,serif" font-size="14.00">0.4.1</text>
</g>
<!-- gov.nasa.jpl.imce:jpl&#45;omf&#45;schema&#45;tables_sjs0.6_2.11:0.2.0&#45;&gt;com.lihaoyi:upickle_sjs0.6_2.11:0.4.1 -->
<g id="edge2" class="edge"><title>gov.nasa.jpl.imce:jpl&#45;omf&#45;schema&#45;tables_sjs0.6_2.11:0.2.0&#45;&gt;com.lihaoyi:upickle_sjs0.6_2.11:0.4.1</title>
<path fill="none" stroke="black" d="M314.353,-307.925C357.63,-316.534 404.868,-325.931 445.678,-334.049"/>
<polygon fill="black" stroke="black" points="445.145,-337.511 455.636,-336.03 446.511,-330.646 445.145,-337.511"/>
</g>
<!-- org.scala&#45;js:scalajs&#45;library_2.11:0.6.6 -->
<g id="node6" class="node"><title>org.scala&#45;js:scalajs&#45;library_2.11:0.6.6</title>
<ellipse fill="none" stroke="black" cx="1428" cy="-462" rx="106.066" ry="41.7193"/>
<text text-anchor="start" x="1389.5" y="-477.233" font-family="Times Roman,serif" font-size="14.00">org.scala&#45;js</text>
<text text-anchor="start" x="1361.5" y="-460.433" font-family="Times Roman,serif" font-size="14.00">scalajs&#45;library_2.11</text>
<text text-anchor="start" x="1409.5" y="-443.633" font-family="Times Roman,serif" font-size="14.00">0.6.6</text>
</g>
<!-- gov.nasa.jpl.imce:jpl&#45;omf&#45;schema&#45;tables_sjs0.6_2.11:0.2.0&#45;&gt;org.scala&#45;js:scalajs&#45;library_2.11:0.6.6 -->
<g id="edge10" class="edge"><title>gov.nasa.jpl.imce:jpl&#45;omf&#45;schema&#45;tables_sjs0.6_2.11:0.2.0&#45;&gt;org.scala&#45;js:scalajs&#45;library_2.11:0.6.6</title>
<path fill="none" stroke="black" d="M209.091,-321.439C266.742,-393.814 400.482,-538 551,-538 551,-538 551,-538 1156,-538 1222.61,-538 1295.11,-516.6 1348.5,-496.511"/>
<polygon fill="black" stroke="black" points="1349.82,-499.755 1357.91,-492.912 1347.32,-493.218 1349.82,-499.755"/>
</g>
<!-- org.scala&#45;js:scalajs&#45;library_2.11:0.6.8 -->
<g id="node7" class="node"><title>org.scala&#45;js:scalajs&#45;library_2.11:0.6.8</title>
<ellipse fill="none" stroke="black" cx="1428" cy="-355" rx="106.066" ry="41.7193"/>
<text text-anchor="start" x="1389.5" y="-370.233" font-family="Times Roman,serif" font-size="14.00">org.scala&#45;js</text>
<text text-anchor="start" x="1361.5" y="-353.433" font-family="Times Roman,serif" font-size="14.00">scalajs&#45;library_2.11</text>
<text text-anchor="start" x="1409.5" y="-336.633" font-family="Times Roman,serif" font-size="14.00">0.6.8</text>
</g>
<!-- gov.nasa.jpl.imce:jpl&#45;omf&#45;schema&#45;tables_sjs0.6_2.11:0.2.0&#45;&gt;org.scala&#45;js:scalajs&#45;library_2.11:0.6.8 -->
<g id="edge18" class="edge"><title>gov.nasa.jpl.imce:jpl&#45;omf&#45;schema&#45;tables_sjs0.6_2.11:0.2.0&#45;&gt;org.scala&#45;js:scalajs&#45;library_2.11:0.6.8</title>
<path fill="none" stroke="black" d="M335.292,-260.948C401.682,-254.038 480.004,-248 551,-248 551,-248 551,-248 1156,-248 1231.71,-248 1311.56,-284.342 1365,-314.666"/>
<polygon fill="black" stroke="black" points="1363.27,-317.706 1373.68,-319.668 1366.76,-311.641 1363.27,-317.706"/>
</g>
<!-- com.sksamuel.scapegoat:scalac&#45;scapegoat&#45;plugin_2.11:1.0.0 -->
<g id="node9" class="node"><title>com.sksamuel.scapegoat:scalac&#45;scapegoat&#45;plugin_2.11:1.0.0</title>
<ellipse fill="none" stroke="black" cx="551" cy="-170" rx="154.856" ry="41.7193"/>
<text text-anchor="start" x="466" y="-185.233" font-family="Times Roman,serif" font-size="14.00">com.sksamuel.scapegoat</text>
<text text-anchor="start" x="450" y="-168.433" font-family="Times Roman,serif" font-size="14.00">scalac&#45;scapegoat&#45;plugin_2.11</text>
<text text-anchor="start" x="532.5" y="-151.633" font-family="Times Roman,serif" font-size="14.00">1.0.0</text>
</g>
<!-- gov.nasa.jpl.imce:jpl&#45;omf&#45;schema&#45;tables_sjs0.6_2.11:0.2.0&#45;&gt;com.sksamuel.scapegoat:scalac&#45;scapegoat&#45;plugin_2.11:1.0.0 -->
<g id="edge30" class="edge"><title>gov.nasa.jpl.imce:jpl&#45;omf&#45;schema&#45;tables_sjs0.6_2.11:0.2.0&#45;&gt;com.sksamuel.scapegoat:scalac&#45;scapegoat&#45;plugin_2.11:1.0.0</title>
<path fill="none" stroke="black" d="M288.099,-248.446C335.333,-234.352 390.598,-217.862 438.235,-203.648"/>
<polygon fill="black" stroke="black" points="439.385,-206.957 447.967,-200.744 437.384,-200.249 439.385,-206.957"/>
</g>
<!-- com.lihaoyi:derive_sjs0.6_2.11:0.4.1 -->
<g id="node3" class="node"><title>com.lihaoyi:derive_sjs0.6_2.11:0.4.1</title>
<ellipse fill="none" stroke="black" cx="867" cy="-424" rx="103.945" ry="41.7193"/>
<text text-anchor="start" x="828" y="-439.233" font-family="Times Roman,serif" font-size="14.00">com.lihaoyi</text>
<text text-anchor="start" x="802" y="-422.433" font-family="Times Roman,serif" font-size="14.00">derive_sjs0.6_2.11</text>
<text text-anchor="start" x="848.5" y="-405.633" font-family="Times Roman,serif" font-size="14.00">0.4.1</text>
</g>
<!-- com.lihaoyi:upickle_sjs0.6_2.11:0.4.1&#45;&gt;com.lihaoyi:derive_sjs0.6_2.11:0.4.1 -->
<g id="edge4" class="edge"><title>com.lihaoyi:upickle_sjs0.6_2.11:0.4.1&#45;&gt;com.lihaoyi:derive_sjs0.6_2.11:0.4.1</title>
<path fill="none" stroke="black" d="M644.528,-375.422C682.781,-383.775 727.119,-393.456 766.1,-401.968"/>
<polygon fill="black" stroke="black" points="765.371,-405.391 775.888,-404.105 766.865,-398.552 765.371,-405.391"/>
</g>
<!-- com.lihaoyi:sourcecode_sjs0.6_2.11:0.1.1 -->
<g id="node4" class="node"><title>com.lihaoyi:sourcecode_sjs0.6_2.11:0.1.1</title>
<ellipse fill="none" stroke="black" cx="1156" cy="-355" rx="126.78" ry="41.7193"/>
<text text-anchor="start" x="1117" y="-370.233" font-family="Times Roman,serif" font-size="14.00">com.lihaoyi</text>
<text text-anchor="start" x="1074.5" y="-353.433" font-family="Times Roman,serif" font-size="14.00">sourcecode_sjs0.6_2.11</text>
<text text-anchor="start" x="1137.5" y="-336.633" font-family="Times Roman,serif" font-size="14.00">0.1.1</text>
</g>
<!-- com.lihaoyi:upickle_sjs0.6_2.11:0.4.1&#45;&gt;com.lihaoyi:sourcecode_sjs0.6_2.11:0.1.1 -->
<g id="edge6" class="edge"><title>com.lihaoyi:upickle_sjs0.6_2.11:0.4.1&#45;&gt;com.lihaoyi:sourcecode_sjs0.6_2.11:0.1.1</title>
<path fill="none" stroke="black" d="M658.813,-355C759.208,-355 909.349,-355 1018.36,-355"/>
<polygon fill="black" stroke="black" points="1018.45,-358.5 1028.45,-355 1018.45,-351.5 1018.45,-358.5"/>
</g>
<!-- com.lihaoyi:upickle_sjs0.6_2.11:0.4.1&#45;&gt;org.scala&#45;js:scalajs&#45;library_2.11:0.6.6 -->
<g id="edge14" class="edge"><title>com.lihaoyi:upickle_sjs0.6_2.11:0.4.1&#45;&gt;org.scala&#45;js:scalajs&#45;library_2.11:0.6.6</title>
<path fill="none" stroke="black" d="M595.516,-392.474C632.578,-421.071 688.139,-458.163 744,-474 942.704,-530.335 1187.07,-504.597 1323.38,-482.294"/>
<polygon fill="black" stroke="black" points="1324.12,-485.72 1333.41,-480.627 1322.97,-478.814 1324.12,-485.72"/>
</g>
<!-- com.lihaoyi:upickle_sjs0.6_2.11:0.4.1&#45;&gt;org.scala&#45;js:scalajs&#45;library_2.11:0.6.8 -->
<g id="edge22" class="edge"><title>com.lihaoyi:upickle_sjs0.6_2.11:0.4.1&#45;&gt;org.scala&#45;js:scalajs&#45;library_2.11:0.6.8</title>
<path fill="none" stroke="black" d="M644.549,-334.696C784.563,-307.439 1056.5,-266.628 1284,-305 1304.63,-308.48 1326.25,-314.58 1346.29,-321.349"/>
<polygon fill="black" stroke="black" points="1345.39,-324.741 1355.98,-324.717 1347.69,-318.129 1345.39,-324.741"/>
</g>
<!-- com.lihaoyi:derive_sjs0.6_2.11:0.4.1&#45;&gt;com.lihaoyi:sourcecode_sjs0.6_2.11:0.1.1 -->
<g id="edge8" class="edge"><title>com.lihaoyi:derive_sjs0.6_2.11:0.4.1&#45;&gt;com.lihaoyi:sourcecode_sjs0.6_2.11:0.1.1</title>
<path fill="none" stroke="black" d="M956.068,-402.735C983.783,-396.118 1014.7,-388.735 1043.79,-381.791"/>
<polygon fill="black" stroke="black" points="1044.66,-385.182 1053.57,-379.455 1043.03,-378.373 1044.66,-385.182"/>
</g>
<!-- com.lihaoyi:derive_sjs0.6_2.11:0.4.1&#45;&gt;org.scala&#45;js:scalajs&#45;library_2.11:0.6.6 -->
<g id="edge16" class="edge"><title>com.lihaoyi:derive_sjs0.6_2.11:0.4.1&#45;&gt;org.scala&#45;js:scalajs&#45;library_2.11:0.6.6</title>
<path fill="none" stroke="black" d="M967.852,-434.531C981.342,-435.788 995.002,-436.984 1008,-438 1110.85,-446.041 1228.08,-452.516 1312.5,-456.704"/>
<polygon fill="black" stroke="black" points="1312.47,-460.207 1322.63,-457.204 1312.81,-453.215 1312.47,-460.207"/>
</g>
<!-- com.lihaoyi:derive_sjs0.6_2.11:0.4.1&#45;&gt;org.scala&#45;js:scalajs&#45;library_2.11:0.6.8 -->
<g id="edge24" class="edge"><title>com.lihaoyi:derive_sjs0.6_2.11:0.4.1&#45;&gt;org.scala&#45;js:scalajs&#45;library_2.11:0.6.8</title>
<path fill="none" stroke="black" d="M970.791,-427.516C1055.75,-428.43 1178.67,-425.242 1284,-405 1304.32,-401.094 1325.67,-394.909 1345.51,-388.201"/>
<polygon fill="black" stroke="black" points="1346.82,-391.453 1355.12,-384.874 1344.53,-384.838 1346.82,-391.453"/>
</g>
<!-- com.lihaoyi:sourcecode_sjs0.6_2.11:0.1.1&#45;&gt;org.scala&#45;js:scalajs&#45;library_2.11:0.6.6 -->
<g id="edge12" class="edge"><title>com.lihaoyi:sourcecode_sjs0.6_2.11:0.1.1&#45;&gt;org.scala&#45;js:scalajs&#45;library_2.11:0.6.6</title>
<path fill="none" stroke="black" d="M1236.87,-386.814C1270.65,-400.103 1309.9,-415.54 1344,-428.957"/>
<polygon fill="black" stroke="black" points="1342.89,-432.281 1353.48,-432.684 1345.45,-425.767 1342.89,-432.281"/>
</g>
<!-- com.lihaoyi:sourcecode_sjs0.6_2.11:0.1.1&#45;&gt;org.scala&#45;js:scalajs&#45;library_2.11:0.6.8 -->
<g id="edge20" class="edge"><title>com.lihaoyi:sourcecode_sjs0.6_2.11:0.1.1&#45;&gt;org.scala&#45;js:scalajs&#45;library_2.11:0.6.8</title>
<path fill="none" stroke="black" d="M1283.64,-355C1293.06,-355 1302.54,-355 1311.9,-355"/>
<polygon fill="black" stroke="black" points="1311.99,-358.5 1321.99,-355 1311.99,-351.5 1311.99,-358.5"/>
</g>
<!-- org.scala&#45;js:scalajs&#45;library_2.11:0.6.12 -->
<g id="node5" class="node"><title>org.scala&#45;js:scalajs&#45;library_2.11:0.6.12</title>
<ellipse fill="none" stroke="black" cx="1750" cy="-416" rx="106.066" ry="41.7193"/>
<text text-anchor="start" x="1711.5" y="-431.233" font-family="Times Roman,serif" font-size="14.00">org.scala&#45;js</text>
<text text-anchor="start" x="1683.5" y="-414.433" font-family="Times Roman,serif" font-size="14.00">scalajs&#45;library_2.11</text>
<text text-anchor="start" x="1727" y="-397.633" font-family="Times Roman,serif" font-size="14.00">0.6.12</text>
</g>
<!-- org.scala&#45;js:scalajs&#45;library_2.11:0.6.6&#45;&gt;org.scala&#45;js:scalajs&#45;library_2.11:0.6.12 -->
<g id="edge36" class="edge"><title>org.scala&#45;js:scalajs&#45;library_2.11:0.6.6&#45;&gt;org.scala&#45;js:scalajs&#45;library_2.11:0.6.12</title>
<path fill="none" stroke="black" d="M1527.68,-447.76C1563.39,-442.659 1603.82,-436.882 1640.33,-431.667"/>
<polygon fill="black" stroke="black" points="1641.11,-435.091 1650.52,-430.212 1640.12,-428.161 1641.11,-435.091"/>
<text text-anchor="middle" x="1589" y="-448.4" font-family="Times Roman,serif" font-size="14.00">Evicted By</text>
</g>
<!-- org.scala&#45;js:scalajs&#45;library_2.11:0.6.8&#45;&gt;org.scala&#45;js:scalajs&#45;library_2.11:0.6.12 -->
<g id="edge38" class="edge"><title>org.scala&#45;js:scalajs&#45;library_2.11:0.6.8&#45;&gt;org.scala&#45;js:scalajs&#45;library_2.11:0.6.12</title>
<path fill="none" stroke="black" d="M1523.3,-373.054C1561.51,-380.293 1605.68,-388.66 1644.83,-396.076"/>
<polygon fill="black" stroke="black" points="1644.19,-399.517 1654.66,-397.939 1645.49,-392.639 1644.19,-399.517"/>
<text text-anchor="middle" x="1589" y="-395.4" font-family="Times Roman,serif" font-size="14.00">Evicted By</text>
</g>
<!-- org.scala&#45;lang:scala&#45;reflect:2.11.8 -->
<g id="node8" class="node"><title>org.scala&#45;lang:scala&#45;reflect:2.11.8</title>
<ellipse fill="none" stroke="black" cx="1156" cy="-170" rx="79.9031" ry="41.7193"/>
<text text-anchor="start" x="1108" y="-185.233" font-family="Times Roman,serif" font-size="14.00">org.scala&#45;lang</text>
<text text-anchor="start" x="1114" y="-168.433" font-family="Times Roman,serif" font-size="14.00">scala&#45;reflect</text>
<text text-anchor="start" x="1133" y="-151.633" font-family="Times Roman,serif" font-size="14.00">2.11.8</text>
</g>
<!-- com.sksamuel.scapegoat:scalac&#45;scapegoat&#45;plugin_2.11:1.0.0&#45;&gt;org.scala&#45;lang:scala&#45;reflect:2.11.8 -->
<g id="edge28" class="edge"><title>com.sksamuel.scapegoat:scalac&#45;scapegoat&#45;plugin_2.11:1.0.0&#45;&gt;org.scala&#45;lang:scala&#45;reflect:2.11.8</title>
<path fill="none" stroke="black" d="M692.1,-187.136C709.556,-188.73 727.172,-190.087 744,-191 853.173,-196.922 880.883,-197.875 990,-191 1015.85,-189.371 1043.83,-186.33 1069.32,-183.057"/>
<polygon fill="black" stroke="black" points="1069.87,-186.515 1079.33,-181.744 1068.96,-179.574 1069.87,-186.515"/>
</g>
<!-- org.scaldi:scaldi_2.11:0.4 -->
<g id="node10" class="node"><title>org.scaldi:scaldi_2.11:0.4</title>
<ellipse fill="none" stroke="black" cx="867" cy="-141" rx="65.9683" ry="41.7193"/>
<text text-anchor="start" x="834.5" y="-156.233" font-family="Times Roman,serif" font-size="14.00">org.scaldi</text>
<text text-anchor="start" x="828.5" y="-139.433" font-family="Times Roman,serif" font-size="14.00">scaldi_2.11</text>
<text text-anchor="start" x="855.5" y="-122.633" font-family="Times Roman,serif" font-size="14.00">0.4</text>
</g>
<!-- com.sksamuel.scapegoat:scalac&#45;scapegoat&#45;plugin_2.11:1.0.0&#45;&gt;org.scaldi:scaldi_2.11:0.4 -->
<g id="edge32" class="edge"><title>com.sksamuel.scapegoat:scalac&#45;scapegoat&#45;plugin_2.11:1.0.0&#45;&gt;org.scaldi:scaldi_2.11:0.4</title>
<path fill="none" stroke="black" d="M697.899,-156.519C730.053,-153.568 762.824,-150.56 790.848,-147.989"/>
<polygon fill="black" stroke="black" points="791.31,-151.461 800.948,-147.062 790.67,-144.49 791.31,-151.461"/>
</g>
<!-- org.scala&#45;lang.modules:scala&#45;xml_2.11:1.0.2 -->
<g id="node11" class="node"><title>org.scala&#45;lang.modules:scala&#45;xml_2.11:1.0.2</title>
<ellipse fill="none" stroke="black" cx="867" cy="-41" rx="123.037" ry="41.7193"/>
<text text-anchor="start" x="788.5" y="-56.2333" font-family="Times Roman,serif" font-size="14.00">org.scala&#45;lang.modules</text>
<text text-anchor="start" x="815.5" y="-39.4333" font-family="Times Roman,serif" font-size="14.00">scala&#45;xml_2.11</text>
<text text-anchor="start" x="848.5" y="-22.6333" font-family="Times Roman,serif" font-size="14.00">1.0.2</text>
</g>
<!-- com.sksamuel.scapegoat:scalac&#45;scapegoat&#45;plugin_2.11:1.0.0&#45;&gt;org.scala&#45;lang.modules:scala&#45;xml_2.11:1.0.2 -->
<g id="edge34" class="edge"><title>com.sksamuel.scapegoat:scalac&#45;scapegoat&#45;plugin_2.11:1.0.0&#45;&gt;org.scala&#45;lang.modules:scala&#45;xml_2.11:1.0.2</title>
<path fill="none" stroke="black" d="M635.057,-135.542C668.898,-121.682 708.297,-105.564 744,-91 755.452,-86.3285 767.507,-81.4187 779.409,-76.5758"/>
<polygon fill="black" stroke="black" points="780.963,-79.7223 788.907,-72.712 778.325,-73.2383 780.963,-79.7223"/>
</g>
<!-- org.scaldi:scaldi_2.11:0.4&#45;&gt;org.scala&#45;lang:scala&#45;reflect:2.11.8 -->
<g id="edge26" class="edge"><title>org.scaldi:scaldi_2.11:0.4&#45;&gt;org.scala&#45;lang:scala&#45;reflect:2.11.8</title>
<path fill="none" stroke="black" d="M932.94,-147.617C972.738,-151.61 1023.96,-156.75 1067.28,-161.097"/>
<polygon fill="black" stroke="black" points="1066.95,-164.581 1077.25,-162.098 1067.65,-157.616 1066.95,-164.581"/>
</g>
</g>
</svg>
