<?xml version="1.0" encoding="UTF-8" standalone="no"?>
<!DOCTYPE svg PUBLIC "-//W3C//DTD SVG 1.1//EN"
 "http://www.w3.org/Graphics/SVG/1.1/DTD/svg11.dtd">
<!-- Generated by graphviz version 2.26.3 (20100126.1600)
 -->
<!-- Title: dependency&#45;graph Pages: 1 -->
<svg width="1864pt" height="646pt"
 viewBox="0.00 0.00 1864.00 646.00" xmlns="http://www.w3.org/2000/svg" xmlns:xlink="http://www.w3.org/1999/xlink">
<g id="graph1" class="graph" transform="scale(1 1) rotate(0) translate(4 642)">
<title>dependency&#45;graph</title>
<polygon fill="white" stroke="white" points="-4,5 -4,-642 1861,-642 1861,5 -4,5"/>
<!-- gov.nasa.jpl.imce:jpl&#45;omf&#45;schema&#45;tables_sjs0.6_2.11:0.25.0 -->
<g id="node1" class="node"><title>gov.nasa.jpl.imce:jpl&#45;omf&#45;schema&#45;tables_sjs0.6_2.11:0.25.0</title>
<ellipse fill="none" stroke="black" cx="179" cy="-348" rx="178.898" ry="41.7193"/>
<text text-anchor="start" x="120" y="-363.233" font-family="Times Roman,serif" font-size="14.00">gov.nasa.jpl.imce</text>
<text text-anchor="start" x="61" y="-346.433" font-family="Times Roman,serif" font-size="14.00">jpl&#45;omf&#45;schema&#45;tables_sjs0.6_2.11</text>
<text text-anchor="start" x="156" y="-329.633" font-family="Times Roman,serif" font-size="14.00">0.25.0</text>
</g>
<!-- com.lihaoyi:upickle_sjs0.6_2.11:0.4.3 -->
<g id="node2" class="node"><title>com.lihaoyi:upickle_sjs0.6_2.11:0.4.3</title>
<ellipse fill="none" stroke="black" cx="551" cy="-493" rx="106.98" ry="41.7193"/>
<text text-anchor="start" x="512" y="-508.233" font-family="Times Roman,serif" font-size="14.00">com.lihaoyi</text>
<text text-anchor="start" x="483.5" y="-491.433" font-family="Times Roman,serif" font-size="14.00">upickle_sjs0.6_2.11</text>
<text text-anchor="start" x="532.5" y="-474.633" font-family="Times Roman,serif" font-size="14.00">0.4.3</text>
</g>
<!-- gov.nasa.jpl.imce:jpl&#45;omf&#45;schema&#45;tables_sjs0.6_2.11:0.25.0&#45;&gt;com.lihaoyi:upickle_sjs0.6_2.11:0.4.3 -->
<g id="edge2" class="edge"><title>gov.nasa.jpl.imce:jpl&#45;omf&#45;schema&#45;tables_sjs0.6_2.11:0.25.0&#45;&gt;com.lihaoyi:upickle_sjs0.6_2.11:0.4.3</title>
<path fill="none" stroke="black" d="M270.001,-383.471C329.803,-406.781 407.515,-437.072 466.052,-459.889"/>
<polygon fill="black" stroke="black" points="465.056,-463.257 475.644,-463.627 467.598,-456.735 465.056,-463.257"/>
</g>
<!-- org.apache.commons:commons&#45;compress:1.4.1 -->
<g id="node5" class="node"><title>org.apache.commons:commons&#45;compress:1.4.1</title>
<ellipse fill="none" stroke="black" cx="551" cy="-279" rx="114.051" ry="41.7193"/>
<text text-anchor="start" x="478.5" y="-294.233" font-family="Times Roman,serif" font-size="14.00">org.apache.commons</text>
<text text-anchor="start" x="484" y="-277.433" font-family="Times Roman,serif" font-size="14.00">commons&#45;compress</text>
<text text-anchor="start" x="532.5" y="-260.633" font-family="Times Roman,serif" font-size="14.00">1.4.1</text>
</g>
<!-- gov.nasa.jpl.imce:jpl&#45;omf&#45;schema&#45;tables_sjs0.6_2.11:0.25.0&#45;&gt;org.apache.commons:commons&#45;compress:1.4.1 -->
<g id="edge10" class="edge"><title>gov.nasa.jpl.imce:jpl&#45;omf&#45;schema&#45;tables_sjs0.6_2.11:0.25.0&#45;&gt;org.apache.commons:commons&#45;compress:1.4.1</title>
<path fill="none" stroke="black" d="M318.313,-322.16C358.17,-314.767 401.086,-306.807 439.074,-299.76"/>
<polygon fill="black" stroke="black" points="439.94,-303.16 449.134,-297.894 438.664,-296.277 439.94,-303.16"/>
</g>
<!-- org.scala&#45;js:scalajs&#45;library_2.11:0.6.6 -->
<g id="node8" class="node"><title>org.scala&#45;js:scalajs&#45;library_2.11:0.6.6</title>
<ellipse fill="none" stroke="black" cx="1428" cy="-424" rx="106.066" ry="41.7193"/>
<text text-anchor="start" x="1389.5" y="-439.233" font-family="Times Roman,serif" font-size="14.00">org.scala&#45;js</text>
<text text-anchor="start" x="1361.5" y="-422.433" font-family="Times Roman,serif" font-size="14.00">scalajs&#45;library_2.11</text>
<text text-anchor="start" x="1409.5" y="-405.633" font-family="Times Roman,serif" font-size="14.00">0.6.6</text>
</g>
<!-- gov.nasa.jpl.imce:jpl&#45;omf&#45;schema&#45;tables_sjs0.6_2.11:0.25.0&#45;&gt;org.scala&#45;js:scalajs&#45;library_2.11:0.6.6 -->
<g id="edge16" class="edge"><title>gov.nasa.jpl.imce:jpl&#45;omf&#45;schema&#45;tables_sjs0.6_2.11:0.25.0&#45;&gt;org.scala&#45;js:scalajs&#45;library_2.11:0.6.6</title>
<path fill="none" stroke="black" d="M358.279,-348C419.421,-348 488.193,-348 551,-348 551,-348 551,-348 1156,-348 1222.61,-348 1295.11,-369.4 1348.5,-389.489"/>
<polygon fill="black" stroke="black" points="1347.32,-392.782 1357.91,-393.088 1349.82,-386.245 1347.32,-392.782"/>
</g>
<!-- org.scala&#45;js:scalajs&#45;library_2.11:0.6.8 -->
<g id="node9" class="node"><title>org.scala&#45;js:scalajs&#45;library_2.11:0.6.8</title>
<ellipse fill="none" stroke="black" cx="1428" cy="-562" rx="106.066" ry="41.7193"/>
<text text-anchor="start" x="1389.5" y="-577.233" font-family="Times Roman,serif" font-size="14.00">org.scala&#45;js</text>
<text text-anchor="start" x="1361.5" y="-560.433" font-family="Times Roman,serif" font-size="14.00">scalajs&#45;library_2.11</text>
<text text-anchor="start" x="1409.5" y="-543.633" font-family="Times Roman,serif" font-size="14.00">0.6.8</text>
</g>
<!-- gov.nasa.jpl.imce:jpl&#45;omf&#45;schema&#45;tables_sjs0.6_2.11:0.25.0&#45;&gt;org.scala&#45;js:scalajs&#45;library_2.11:0.6.8 -->
<g id="edge26" class="edge"><title>gov.nasa.jpl.imce:jpl&#45;omf&#45;schema&#45;tables_sjs0.6_2.11:0.25.0&#45;&gt;org.scala&#45;js:scalajs&#45;library_2.11:0.6.8</title>
<path fill="none" stroke="black" d="M204.48,-388.629C258.043,-468.441 390.702,-638 551,-638 551,-638 551,-638 1156,-638 1222.61,-638 1295.11,-616.6 1348.5,-596.511"/>
<polygon fill="black" stroke="black" points="1349.82,-599.755 1357.91,-592.912 1347.32,-593.218 1349.82,-599.755"/>
</g>
<!-- com.sksamuel.scapegoat:scalac&#45;scapegoat&#45;plugin_2.11:1.0.0 -->
<g id="node11" class="node"><title>com.sksamuel.scapegoat:scalac&#45;scapegoat&#45;plugin_2.11:1.0.0</title>
<ellipse fill="none" stroke="black" cx="551" cy="-160" rx="154.856" ry="41.7193"/>
<text text-anchor="start" x="466" y="-175.233" font-family="Times Roman,serif" font-size="14.00">com.sksamuel.scapegoat</text>
<text text-anchor="start" x="450" y="-158.433" font-family="Times Roman,serif" font-size="14.00">scalac&#45;scapegoat&#45;plugin_2.11</text>
<text text-anchor="start" x="532.5" y="-141.633" font-family="Times Roman,serif" font-size="14.00">1.0.0</text>
</g>
<!-- gov.nasa.jpl.imce:jpl&#45;omf&#45;schema&#45;tables_sjs0.6_2.11:0.25.0&#45;&gt;com.sksamuel.scapegoat:scalac&#45;scapegoat&#45;plugin_2.11:1.0.0 -->
<g id="edge34" class="edge"><title>gov.nasa.jpl.imce:jpl&#45;omf&#45;schema&#45;tables_sjs0.6_2.11:0.25.0&#45;&gt;com.sksamuel.scapegoat:scalac&#45;scapegoat&#45;plugin_2.11:1.0.0</title>
<path fill="none" stroke="black" d="M245.208,-309.833C287.804,-285.743 344.608,-254.476 396,-229 416.46,-218.858 438.744,-208.53 459.869,-199.06"/>
<polygon fill="black" stroke="black" points="461.455,-202.185 469.162,-194.915 458.604,-195.792 461.455,-202.185"/>
</g>
<!-- com.lihaoyi:derive_sjs0.6_2.11:0.4.3 -->
<g id="node3" class="node"><title>com.lihaoyi:derive_sjs0.6_2.11:0.4.3</title>
<ellipse fill="none" stroke="black" cx="867" cy="-493" rx="103.945" ry="41.7193"/>
<text text-anchor="start" x="828" y="-508.233" font-family="Times Roman,serif" font-size="14.00">com.lihaoyi</text>
<text text-anchor="start" x="802" y="-491.433" font-family="Times Roman,serif" font-size="14.00">derive_sjs0.6_2.11</text>
<text text-anchor="start" x="848.5" y="-474.633" font-family="Times Roman,serif" font-size="14.00">0.4.3</text>
</g>
<!-- com.lihaoyi:upickle_sjs0.6_2.11:0.4.3&#45;&gt;com.lihaoyi:derive_sjs0.6_2.11:0.4.3 -->
<g id="edge4" class="edge"><title>com.lihaoyi:upickle_sjs0.6_2.11:0.4.3&#45;&gt;com.lihaoyi:derive_sjs0.6_2.11:0.4.3</title>
<path fill="none" stroke="black" d="M658.865,-493C689.065,-493 721.991,-493 752.557,-493"/>
<polygon fill="black" stroke="black" points="752.825,-496.5 762.825,-493 752.825,-489.5 752.825,-496.5"/>
</g>
<!-- com.lihaoyi:sourcecode_sjs0.6_2.11:0.1.1 -->
<g id="node4" class="node"><title>com.lihaoyi:sourcecode_sjs0.6_2.11:0.1.1</title>
<ellipse fill="none" stroke="black" cx="1156" cy="-493" rx="126.78" ry="41.7193"/>
<text text-anchor="start" x="1117" y="-508.233" font-family="Times Roman,serif" font-size="14.00">com.lihaoyi</text>
<text text-anchor="start" x="1074.5" y="-491.433" font-family="Times Roman,serif" font-size="14.00">sourcecode_sjs0.6_2.11</text>
<text text-anchor="start" x="1137.5" y="-474.633" font-family="Times Roman,serif" font-size="14.00">0.1.1</text>
</g>
<!-- com.lihaoyi:upickle_sjs0.6_2.11:0.4.3&#45;&gt;com.lihaoyi:sourcecode_sjs0.6_2.11:0.1.1 -->
<g id="edge8" class="edge"><title>com.lihaoyi:upickle_sjs0.6_2.11:0.4.3&#45;&gt;com.lihaoyi:sourcecode_sjs0.6_2.11:0.1.1</title>
<path fill="none" stroke="black" d="M633.698,-519.339C667.517,-528.815 707.261,-538.318 744,-543 852.456,-556.821 881.834,-558.936 990,-543 1013.58,-539.526 1038.45,-533.417 1061.57,-526.636"/>
<polygon fill="black" stroke="black" points="1062.79,-529.924 1071.36,-523.694 1060.77,-523.22 1062.79,-529.924"/>
</g>
<!-- com.lihaoyi:upickle_sjs0.6_2.11:0.4.3&#45;&gt;org.scala&#45;js:scalajs&#45;library_2.11:0.6.6 -->
<g id="edge20" class="edge"><title>com.lihaoyi:upickle_sjs0.6_2.11:0.4.3&#45;&gt;org.scala&#45;js:scalajs&#45;library_2.11:0.6.6</title>
<path fill="none" stroke="black" d="M635.847,-467.776C669.28,-458.692 708.184,-449.172 744,-443 941.73,-408.926 1176.28,-411.543 1313,-417.268"/>
<polygon fill="black" stroke="black" points="1312.94,-420.769 1323.08,-417.703 1313.24,-413.775 1312.94,-420.769"/>
</g>
<!-- com.lihaoyi:upickle_sjs0.6_2.11:0.4.3&#45;&gt;org.scala&#45;js:scalajs&#45;library_2.11:0.6.8 -->
<g id="edge28" class="edge"><title>com.lihaoyi:upickle_sjs0.6_2.11:0.4.3&#45;&gt;org.scala&#45;js:scalajs&#45;library_2.11:0.6.8</title>
<path fill="none" stroke="black" d="M621.455,-524.224C657.381,-538.579 702.211,-554.136 744,-562 987.822,-607.884 1053.92,-574.444 1302,-578 1307.58,-578.08 1313.29,-577.988 1319.05,-577.757"/>
<polygon fill="black" stroke="black" points="1319.65,-581.229 1329.45,-577.197 1319.27,-574.239 1319.65,-581.229"/>
</g>
<!-- com.lihaoyi:derive_sjs0.6_2.11:0.4.3&#45;&gt;com.lihaoyi:sourcecode_sjs0.6_2.11:0.1.1 -->
<g id="edge6" class="edge"><title>com.lihaoyi:derive_sjs0.6_2.11:0.4.3&#45;&gt;com.lihaoyi:sourcecode_sjs0.6_2.11:0.1.1</title>
<path fill="none" stroke="black" d="M971.336,-493C986.455,-493 1002.21,-493 1017.87,-493"/>
<polygon fill="black" stroke="black" points="1018.14,-496.5 1028.14,-493 1018.14,-489.5 1018.14,-496.5"/>
</g>
<!-- com.lihaoyi:derive_sjs0.6_2.11:0.4.3&#45;&gt;org.scala&#45;js:scalajs&#45;library_2.11:0.6.6 -->
<g id="edge18" class="edge"><title>com.lihaoyi:derive_sjs0.6_2.11:0.4.3&#45;&gt;org.scala&#45;js:scalajs&#45;library_2.11:0.6.6</title>
<path fill="none" stroke="black" d="M943.408,-464.924C969.845,-456.38 999.896,-447.948 1028,-443 1122.55,-426.352 1231.49,-422.136 1311.78,-421.784"/>
<polygon fill="black" stroke="black" points="1311.93,-425.284 1321.92,-421.759 1311.91,-418.284 1311.93,-425.284"/>
</g>
<!-- com.lihaoyi:derive_sjs0.6_2.11:0.4.3&#45;&gt;org.scala&#45;js:scalajs&#45;library_2.11:0.6.8 -->
<g id="edge24" class="edge"><title>com.lihaoyi:derive_sjs0.6_2.11:0.4.3&#45;&gt;org.scala&#45;js:scalajs&#45;library_2.11:0.6.8</title>
<path fill="none" stroke="black" d="M943.408,-521.076C969.845,-529.62 999.896,-538.052 1028,-543 1122.55,-559.648 1231.49,-563.864 1311.78,-564.216"/>
<polygon fill="black" stroke="black" points="1311.91,-567.716 1321.92,-564.241 1311.93,-560.716 1311.91,-567.716"/>
</g>
<!-- com.lihaoyi:sourcecode_sjs0.6_2.11:0.1.1&#45;&gt;org.scala&#45;js:scalajs&#45;library_2.11:0.6.6 -->
<g id="edge14" class="edge"><title>com.lihaoyi:sourcecode_sjs0.6_2.11:0.1.1&#45;&gt;org.scala&#45;js:scalajs&#45;library_2.11:0.6.6</title>
<path fill="none" stroke="black" d="M1256.12,-467.601C1280.09,-461.522 1305.65,-455.037 1329.54,-448.977"/>
<polygon fill="black" stroke="black" points="1330.48,-452.35 1339.31,-446.498 1328.76,-445.565 1330.48,-452.35"/>
</g>
<!-- com.lihaoyi:sourcecode_sjs0.6_2.11:0.1.1&#45;&gt;org.scala&#45;js:scalajs&#45;library_2.11:0.6.8 -->
<g id="edge22" class="edge"><title>com.lihaoyi:sourcecode_sjs0.6_2.11:0.1.1&#45;&gt;org.scala&#45;js:scalajs&#45;library_2.11:0.6.8</title>
<path fill="none" stroke="black" d="M1256.12,-518.399C1280.09,-524.478 1305.65,-530.963 1329.54,-537.023"/>
<polygon fill="black" stroke="black" points="1328.76,-540.435 1339.31,-539.502 1330.48,-533.65 1328.76,-540.435"/>
</g>
<!-- org.tukaani:xz:1.0 -->
<g id="node6" class="node"><title>org.tukaani:xz:1.0</title>
<ellipse fill="none" stroke="black" cx="867" cy="-279" rx="68.0887" ry="41.7193"/>
<text text-anchor="start" x="827" y="-294.233" font-family="Times Roman,serif" font-size="14.00">org.tukaani</text>
<text text-anchor="start" x="858.5" y="-277.433" font-family="Times Roman,serif" font-size="14.00">xz</text>
<text text-anchor="start" x="855.5" y="-260.633" font-family="Times Roman,serif" font-size="14.00">1.0</text>
</g>
<!-- org.apache.commons:commons&#45;compress:1.4.1&#45;&gt;org.tukaani:xz:1.0 -->
<g id="edge12" class="edge"><title>org.apache.commons:commons&#45;compress:1.4.1&#45;&gt;org.tukaani:xz:1.0</title>
<path fill="none" stroke="black" d="M665.53,-279C706.215,-279 751.071,-279 788.109,-279"/>
<polygon fill="black" stroke="black" points="788.338,-282.5 798.338,-279 788.338,-275.5 788.338,-282.5"/>
</g>
<!-- org.scala&#45;js:scalajs&#45;library_2.11:0.6.13 -->
<g id="node7" class="node"><title>org.scala&#45;js:scalajs&#45;library_2.11:0.6.13</title>
<ellipse fill="none" stroke="black" cx="1750" cy="-504" rx="106.066" ry="41.7193"/>
<text text-anchor="start" x="1711.5" y="-519.233" font-family="Times Roman,serif" font-size="14.00">org.scala&#45;js</text>
<text text-anchor="start" x="1683.5" y="-502.433" font-family="Times Roman,serif" font-size="14.00">scalajs&#45;library_2.11</text>
<text text-anchor="start" x="1727" y="-485.633" font-family="Times Roman,serif" font-size="14.00">0.6.13</text>
</g>
<!-- org.scala&#45;js:scalajs&#45;library_2.11:0.6.6&#45;&gt;org.scala&#45;js:scalajs&#45;library_2.11:0.6.13 -->
<g id="edge40" class="edge"><title>org.scala&#45;js:scalajs&#45;library_2.11:0.6.6&#45;&gt;org.scala&#45;js:scalajs&#45;library_2.11:0.6.13</title>
<path fill="none" stroke="black" d="M1517.27,-446.178C1558.71,-456.474 1608.12,-468.75 1650.73,-479.337"/>
<polygon fill="black" stroke="black" points="1650.01,-482.764 1660.56,-481.779 1651.7,-475.971 1650.01,-482.764"/>
<text text-anchor="middle" x="1589" y="-476.4" font-family="Times Roman,serif" font-size="14.00">Evicted By</text>
</g>
<!-- org.scala&#45;js:scalajs&#45;library_2.11:0.6.8&#45;&gt;org.scala&#45;js:scalajs&#45;library_2.11:0.6.13 -->
<g id="edge42" class="edge"><title>org.scala&#45;js:scalajs&#45;library_2.11:0.6.8&#45;&gt;org.scala&#45;js:scalajs&#45;library_2.11:0.6.13</title>
<path fill="none" stroke="black" d="M1524.17,-544.677C1561.77,-537.905 1605.03,-530.113 1643.56,-523.173"/>
<polygon fill="black" stroke="black" points="1644.54,-526.552 1653.77,-521.334 1643.3,-519.662 1644.54,-526.552"/>
<text text-anchor="middle" x="1589" y="-543.4" font-family="Times Roman,serif" font-size="14.00">Evicted By</text>
</g>
<!-- org.scala&#45;lang:scala&#45;reflect:2.11.8 -->
<g id="node10" class="node"><title>org.scala&#45;lang:scala&#45;reflect:2.11.8</title>
<ellipse fill="none" stroke="black" cx="1156" cy="-187" rx="79.9031" ry="41.7193"/>
<text text-anchor="start" x="1108" y="-202.233" font-family="Times Roman,serif" font-size="14.00">org.scala&#45;lang</text>
<text text-anchor="start" x="1114" y="-185.433" font-family="Times Roman,serif" font-size="14.00">scala&#45;reflect</text>
<text text-anchor="start" x="1133" y="-168.633" font-family="Times Roman,serif" font-size="14.00">2.11.8</text>
</g>
<!-- com.sksamuel.scapegoat:scalac&#45;scapegoat&#45;plugin_2.11:1.0.0&#45;&gt;org.scala&#45;lang:scala&#45;reflect:2.11.8 -->
<g id="edge32" class="edge"><title>com.sksamuel.scapegoat:scalac&#45;scapegoat&#45;plugin_2.11:1.0.0&#45;&gt;org.scala&#45;lang:scala&#45;reflect:2.11.8</title>
<path fill="none" stroke="black" d="M678.348,-183.392C700.177,-186.558 722.688,-189.299 744,-191 852.987,-199.697 880.675,-192.317 990,-191 1014.58,-190.704 1041.19,-190.161 1065.77,-189.57"/>
<polygon fill="black" stroke="black" points="1065.88,-193.068 1075.8,-189.323 1065.71,-186.07 1065.88,-193.068"/>
</g>
<!-- org.scaldi:scaldi_2.11:0.4 -->
<g id="node12" class="node"><title>org.scaldi:scaldi_2.11:0.4</title>
<ellipse fill="none" stroke="black" cx="867" cy="-141" rx="65.9683" ry="41.7193"/>
<text text-anchor="start" x="834.5" y="-156.233" font-family="Times Roman,serif" font-size="14.00">org.scaldi</text>
<text text-anchor="start" x="828.5" y="-139.433" font-family="Times Roman,serif" font-size="14.00">scaldi_2.11</text>
<text text-anchor="start" x="855.5" y="-122.633" font-family="Times Roman,serif" font-size="14.00">0.4</text>
</g>
<!-- com.sksamuel.scapegoat:scalac&#45;scapegoat&#45;plugin_2.11:1.0.0&#45;&gt;org.scaldi:scaldi_2.11:0.4 -->
<g id="edge36" class="edge"><title>com.sksamuel.scapegoat:scalac&#45;scapegoat&#45;plugin_2.11:1.0.0&#45;&gt;org.scaldi:scaldi_2.11:0.4</title>
<path fill="none" stroke="black" d="M702.521,-150.89C733.14,-149.049 764.084,-147.188 790.743,-145.585"/>
<polygon fill="black" stroke="black" points="790.969,-149.078 800.741,-144.984 790.549,-142.091 790.969,-149.078"/>
</g>
<!-- org.scala&#45;lang.modules:scala&#45;xml_2.11:1.0.2 -->
<g id="node13" class="node"><title>org.scala&#45;lang.modules:scala&#45;xml_2.11:1.0.2</title>
<ellipse fill="none" stroke="black" cx="867" cy="-41" rx="123.037" ry="41.7193"/>
<text text-anchor="start" x="788.5" y="-56.2333" font-family="Times Roman,serif" font-size="14.00">org.scala&#45;lang.modules</text>
<text text-anchor="start" x="815.5" y="-39.4333" font-family="Times Roman,serif" font-size="14.00">scala&#45;xml_2.11</text>
<text text-anchor="start" x="848.5" y="-22.6333" font-family="Times Roman,serif" font-size="14.00">1.0.2</text>
</g>
<!-- com.sksamuel.scapegoat:scalac&#45;scapegoat&#45;plugin_2.11:1.0.0&#45;&gt;org.scala&#45;lang.modules:scala&#45;xml_2.11:1.0.2 -->
<g id="edge38" class="edge"><title>com.sksamuel.scapegoat:scalac&#45;scapegoat&#45;plugin_2.11:1.0.0&#45;&gt;org.scala&#45;lang.modules:scala&#45;xml_2.11:1.0.2</title>
<path fill="none" stroke="black" d="M640.286,-126.377C682.62,-110.434 733.128,-91.4137 775.715,-75.3762"/>
<polygon fill="black" stroke="black" points="777.11,-78.591 785.235,-71.7913 774.643,-72.0401 777.11,-78.591"/>
</g>
<!-- org.scaldi:scaldi_2.11:0.4&#45;&gt;org.scala&#45;lang:scala&#45;reflect:2.11.8 -->
<g id="edge30" class="edge"><title>org.scaldi:scaldi_2.11:0.4&#45;&gt;org.scala&#45;lang:scala&#45;reflect:2.11.8</title>
<path fill="none" stroke="black" d="M931.498,-151.266C972.173,-157.74 1025.2,-166.18 1069.5,-173.232"/>
<polygon fill="black" stroke="black" points="1068.97,-176.691 1079.4,-174.807 1070.07,-169.778 1068.97,-176.691"/>
</g>
</g>
</svg>
