<?xml version="1.0" encoding="UTF-8" standalone="no"?>
<!DOCTYPE svg PUBLIC "-//W3C//DTD SVG 1.1//EN"
 "http://www.w3.org/Graphics/SVG/1.1/DTD/svg11.dtd">
<!-- Generated by graphviz version 2.26.3 (20100126.1600)
 -->
<!-- Title: dependency&#45;graph Pages: 1 -->
<svg width="1190pt" height="290pt"
 viewBox="0.00 0.00 1190.00 290.00" xmlns="http://www.w3.org/2000/svg" xmlns:xlink="http://www.w3.org/1999/xlink">
<g id="graph1" class="graph" transform="scale(1 1) rotate(0) translate(4 286)">
<title>dependency&#45;graph</title>
<polygon fill="white" stroke="white" points="-4,5 -4,-286 1187,-286 1187,5 -4,5"/>
<!-- gov.nasa.jpl.imce:jpl&#45;omf&#45;schema&#45;tables_sjs0.6_2.11:0.9.1 -->
<g id="node1" class="node"><title>gov.nasa.jpl.imce:jpl&#45;omf&#45;schema&#45;tables_sjs0.6_2.11:0.9.1</title>
<ellipse fill="none" stroke="black" cx="179" cy="-191" rx="178.898" ry="41.7193"/>
<text text-anchor="start" x="120" y="-206.233" font-family="Times Roman,serif" font-size="14.00">gov.nasa.jpl.imce</text>
<text text-anchor="start" x="61" y="-189.433" font-family="Times Roman,serif" font-size="14.00">jpl&#45;omf&#45;schema&#45;tables_sjs0.6_2.11</text>
<text text-anchor="start" x="160.5" y="-172.633" font-family="Times Roman,serif" font-size="14.00">0.9.1</text>
</g>
<!-- org.scala&#45;js:scalajs&#45;library_2.11:0.6.12 -->
<g id="node2" class="node"><title>org.scala&#45;js:scalajs&#45;library_2.11:0.6.12</title>
<ellipse fill="none" stroke="black" cx="549" cy="-241" rx="106.066" ry="41.7193"/>
<text text-anchor="start" x="510.5" y="-256.233" font-family="Times Roman,serif" font-size="14.00">org.scala&#45;js</text>
<text text-anchor="start" x="482.5" y="-239.433" font-family="Times Roman,serif" font-size="14.00">scalajs&#45;library_2.11</text>
<text text-anchor="start" x="526" y="-222.633" font-family="Times Roman,serif" font-size="14.00">0.6.12</text>
</g>
<!-- gov.nasa.jpl.imce:jpl&#45;omf&#45;schema&#45;tables_sjs0.6_2.11:0.9.1&#45;&gt;org.scala&#45;js:scalajs&#45;library_2.11:0.6.12 -->
<g id="edge2" class="edge"><title>gov.nasa.jpl.imce:jpl&#45;omf&#45;schema&#45;tables_sjs0.6_2.11:0.9.1&#45;&gt;org.scala&#45;js:scalajs&#45;library_2.11:0.6.12</title>
<path fill="none" stroke="black" d="M333.234,-211.842C368.635,-216.626 405.582,-221.619 438.693,-226.094"/>
<polygon fill="black" stroke="black" points="438.461,-229.594 448.839,-227.465 439.398,-222.657 438.461,-229.594"/>
</g>
<!-- com.sksamuel.scapegoat:scalac&#45;scapegoat&#45;plugin_2.11:1.0.0 -->
<g id="node4" class="node"><title>com.sksamuel.scapegoat:scalac&#45;scapegoat&#45;plugin_2.11:1.0.0</title>
<ellipse fill="none" stroke="black" cx="549" cy="-141" rx="154.856" ry="41.7193"/>
<text text-anchor="start" x="464" y="-156.233" font-family="Times Roman,serif" font-size="14.00">com.sksamuel.scapegoat</text>
<text text-anchor="start" x="448" y="-139.433" font-family="Times Roman,serif" font-size="14.00">scalac&#45;scapegoat&#45;plugin_2.11</text>
<text text-anchor="start" x="530.5" y="-122.633" font-family="Times Roman,serif" font-size="14.00">1.0.0</text>
</g>
<!-- gov.nasa.jpl.imce:jpl&#45;omf&#45;schema&#45;tables_sjs0.6_2.11:0.9.1&#45;&gt;com.sksamuel.scapegoat:scalac&#45;scapegoat&#45;plugin_2.11:1.0.0 -->
<g id="edge8" class="edge"><title>gov.nasa.jpl.imce:jpl&#45;omf&#45;schema&#45;tables_sjs0.6_2.11:0.9.1&#45;&gt;com.sksamuel.scapegoat:scalac&#45;scapegoat&#45;plugin_2.11:1.0.0</title>
<path fill="none" stroke="black" d="M333.234,-170.158C355.588,-167.137 378.559,-164.033 400.79,-161.028"/>
<polygon fill="black" stroke="black" points="401.507,-164.463 410.948,-159.656 400.57,-157.526 401.507,-164.463"/>
</g>
<!-- org.scala&#45;lang:scala&#45;reflect:2.11.8 -->
<g id="node3" class="node"><title>org.scala&#45;lang:scala&#45;reflect:2.11.8</title>
<ellipse fill="none" stroke="black" cx="1102" cy="-175" rx="79.9031" ry="41.7193"/>
<text text-anchor="start" x="1054" y="-190.233" font-family="Times Roman,serif" font-size="14.00">org.scala&#45;lang</text>
<text text-anchor="start" x="1060" y="-173.433" font-family="Times Roman,serif" font-size="14.00">scala&#45;reflect</text>
<text text-anchor="start" x="1079" y="-156.633" font-family="Times Roman,serif" font-size="14.00">2.11.8</text>
</g>
<!-- com.sksamuel.scapegoat:scalac&#45;scapegoat&#45;plugin_2.11:1.0.0&#45;&gt;org.scala&#45;lang:scala&#45;reflect:2.11.8 -->
<g id="edge6" class="edge"><title>com.sksamuel.scapegoat:scalac&#45;scapegoat&#45;plugin_2.11:1.0.0&#45;&gt;org.scala&#45;lang:scala&#45;reflect:2.11.8</title>
<path fill="none" stroke="black" d="M649.156,-172.362C678.165,-180.037 710.083,-187.149 740,-191 848.439,-204.958 876.923,-198.487 986,-191 995.483,-190.349 1005.37,-189.402 1015.2,-188.289"/>
<polygon fill="black" stroke="black" points="1015.89,-191.732 1025.41,-187.074 1015.06,-184.781 1015.89,-191.732"/>
</g>
<!-- org.scaldi:scaldi_2.11:0.4 -->
<g id="node5" class="node"><title>org.scaldi:scaldi_2.11:0.4</title>
<ellipse fill="none" stroke="black" cx="863" cy="-141" rx="65.9683" ry="41.7193"/>
<text text-anchor="start" x="830.5" y="-156.233" font-family="Times Roman,serif" font-size="14.00">org.scaldi</text>
<text text-anchor="start" x="824.5" y="-139.433" font-family="Times Roman,serif" font-size="14.00">scaldi_2.11</text>
<text text-anchor="start" x="851.5" y="-122.633" font-family="Times Roman,serif" font-size="14.00">0.4</text>
</g>
<!-- com.sksamuel.scapegoat:scalac&#45;scapegoat&#45;plugin_2.11:1.0.0&#45;&gt;org.scaldi:scaldi_2.11:0.4 -->
<g id="edge10" class="edge"><title>com.sksamuel.scapegoat:scalac&#45;scapegoat&#45;plugin_2.11:1.0.0&#45;&gt;org.scaldi:scaldi_2.11:0.4</title>
<path fill="none" stroke="black" d="M704.16,-141C732.678,-141 761.277,-141 786.192,-141"/>
<polygon fill="black" stroke="black" points="786.271,-144.5 796.271,-141 786.271,-137.5 786.271,-144.5"/>
</g>
<!-- org.scala&#45;lang.modules:scala&#45;xml_2.11:1.0.2 -->
<g id="node6" class="node"><title>org.scala&#45;lang.modules:scala&#45;xml_2.11:1.0.2</title>
<ellipse fill="none" stroke="black" cx="863" cy="-41" rx="123.037" ry="41.7193"/>
<text text-anchor="start" x="784.5" y="-56.2333" font-family="Times Roman,serif" font-size="14.00">org.scala&#45;lang.modules</text>
<text text-anchor="start" x="811.5" y="-39.4333" font-family="Times Roman,serif" font-size="14.00">scala&#45;xml_2.11</text>
<text text-anchor="start" x="844.5" y="-22.6333" font-family="Times Roman,serif" font-size="14.00">1.0.2</text>
</g>
<!-- com.sksamuel.scapegoat:scalac&#45;scapegoat&#45;plugin_2.11:1.0.0&#45;&gt;org.scala&#45;lang.modules:scala&#45;xml_2.11:1.0.2 -->
<g id="edge12" class="edge"><title>com.sksamuel.scapegoat:scalac&#45;scapegoat&#45;plugin_2.11:1.0.0&#45;&gt;org.scala&#45;lang.modules:scala&#45;xml_2.11:1.0.2</title>
<path fill="none" stroke="black" d="M648.352,-109.359C685.297,-97.5934 727.188,-84.2523 764.093,-72.4991"/>
<polygon fill="black" stroke="black" points="765.394,-75.7581 773.86,-69.3885 763.27,-69.0881 765.394,-75.7581"/>
</g>
<!-- org.scaldi:scaldi_2.11:0.4&#45;&gt;org.scala&#45;lang:scala&#45;reflect:2.11.8 -->
<g id="edge4" class="edge"><title>org.scaldi:scaldi_2.11:0.4&#45;&gt;org.scala&#45;lang:scala&#45;reflect:2.11.8</title>
<path fill="none" stroke="black" d="M927.992,-150.246C954.7,-154.045 986.032,-158.502 1014.69,-162.58"/>
<polygon fill="black" stroke="black" points="1014.31,-166.061 1024.71,-164.004 1015.3,-159.131 1014.31,-166.061"/>
</g>
</g>
</svg>
